<?xml version="1.0" encoding="utf-8" standalone="no"?>
<!DOCTYPE svg PUBLIC "-//W3C//DTD SVG 1.1//EN"
  "http://www.w3.org/Graphics/SVG/1.1/DTD/svg11.dtd">
<svg xmlns:xlink="http://www.w3.org/1999/xlink" width="1008pt" height="316.8pt" viewBox="0 0 1008 316.8" xmlns="http://www.w3.org/2000/svg" version="1.1">
 <metadata>
  <rdf:RDF xmlns:dc="http://purl.org/dc/elements/1.1/" xmlns:cc="http://creativecommons.org/ns#" xmlns:rdf="http://www.w3.org/1999/02/22-rdf-syntax-ns#">
   <cc:Work>
    <dc:type rdf:resource="http://purl.org/dc/dcmitype/StillImage"/>
    <dc:date>2026-09-19T16:58:29.898595</dc:date>
    <dc:format>image/svg+xml</dc:format>
    <dc:creator>
     <cc:Agent>
      <dc:title>Matplotlib v3.11.2, https://matplotlib.org/</dc:title>
     </cc:Agent>
    </dc:creator>
   </cc:Work>
  </rdf:RDF>
 </metadata>
 <defs>
  <style type="text/css">*{stroke-linejoin: round; stroke-linecap: butt}</style>
 </defs>
 <g id="figure_1">
  <g id="patch_1">
   <path d="M 0 316.8 
L 1008 316.8 
L 1008 0 
L 0 0 
z
" style="fill: #ffffff"/>
  </g>
  <g id="axes_1">
   <g id="patch_2">
    <path d="M 151.39375 235.077656 
L 332.4 235.077656 
L 332.4 53.811047 
L 151.39375 53.811047 
z
" style="fill: #ffffff"/>
   </g>
   <g id="patch_3">
    <path d="M 151.39375 62.050438 
L 279.087754 62.050438 
L 279.087754 226.838265 
L 151.39375 226.838265 
z
" clip-path="url(#p197f0d0d80)" style="fill: #2ca02c; opacity: 0.85"/>
   </g>
   <g id="matplotlib.axis_1">
    <g id="xtick_1">
     <g id="line2d_1">
      <path d="M 151.39375 235.077656 
L 151.39375 53.811047 
" clip-path="url(#p197f0d0d80)" style="fill: none; stroke: #b0b0b0; stroke-opacity: 0.25; stroke-width: 0.6; stroke-linecap: square"/>
     </g>
     <g id="line2d_2">
      <defs>
       <path id="m72245d33ca" d="M 0 0 
L 0 3.5 
" style="stroke: #000000; stroke-width: 0.8"/>
      </defs>
      <g>
       <use xlink:href="#m72245d33ca" x="151.39375" y="235.077656" style="stroke: #000000; stroke-width: 0.8"/>
      </g>
     </g>
     <g id="text_1">
      <!-- 0 -->
      <g transform="translate(148.2125 249.675313) scale(0.1 -0.1)">
       <defs>
        <path id="DejaVuSans-13" d="M 2034 4250 
Q 1547 4250 1301 3770 
Q 1056 3291 1056 2328 
Q 1056 1369 1301 889 
Q 1547 409 2034 409 
Q 2525 409 2770 889 
Q 3016 1369 3016 2328 
Q 3016 3291 2770 3770 
Q 2525 4250 2034 4250 
z
M 2034 4750 
Q 2819 4750 3233 4129 
Q 3647 3509 3647 2328 
Q 3647 1150 3233 529 
Q 2819 -91 2034 -91 
Q 1250 -91 836 529 
Q 422 1150 422 2328 
Q 422 3509 836 4129 
Q 1250 4750 2034 4750 
z
" transform="scale(0.015625)"/>
       </defs>
       <use xlink:href="#DejaVuSans-13"/>
      </g>
     </g>
    </g>
    <g id="xtick_2">
     <g id="line2d_3">
      <path d="M 201.27422 235.077656 
L 201.27422 53.811047 
" clip-path="url(#p197f0d0d80)" style="fill: none; stroke: #b0b0b0; stroke-opacity: 0.25; stroke-width: 0.6; stroke-linecap: square"/>
     </g>
     <g id="line2d_4">
      <g>
       <use xlink:href="#m72245d33ca" x="201.27422" y="235.077656" style="stroke: #000000; stroke-width: 0.8"/>
      </g>
     </g>
     <g id="text_2">
      <!-- 100 -->
      <g transform="translate(191.73047 249.675313) scale(0.1 -0.1)">
       <defs>
        <path id="DejaVuSans-14" d="M 794 531 
L 1825 531 
L 1825 4091 
L 703 3866 
L 703 4441 
L 1819 4666 
L 2450 4666 
L 2450 531 
L 3481 531 
L 3481 0 
L 794 0 
L 794 531 
z
" transform="scale(0.015625)"/>
       </defs>
       <use xlink:href="#DejaVuSans-14"/>
       <use xlink:href="#DejaVuSans-13" transform="translate(63.625 0)"/>
       <use xlink:href="#DejaVuSans-13" transform="translate(127.25 0)"/>
      </g>
     </g>
    </g>
    <g id="xtick_3">
     <g id="line2d_5">
      <path d="M 251.15469 235.077656 
L 251.15469 53.811047 
" clip-path="url(#p197f0d0d80)" style="fill: none; stroke: #b0b0b0; stroke-opacity: 0.25; stroke-width: 0.6; stroke-linecap: square"/>
     </g>
     <g id="line2d_6">
      <g>
       <use xlink:href="#m72245d33ca" x="251.15469" y="235.077656" style="stroke: #000000; stroke-width: 0.8"/>
      </g>
     </g>
     <g id="text_3">
      <!-- 200 -->
      <g transform="translate(241.61094 249.675313) scale(0.1 -0.1)">
       <defs>
        <path id="DejaVuSans-15" d="M 1228 531 
L 3431 531 
L 3431 0 
L 469 0 
L 469 531 
Q 828 903 1448 1529 
Q 2069 2156 2228 2338 
Q 2531 2678 2651 2914 
Q 2772 3150 2772 3378 
Q 2772 3750 2511 3984 
Q 2250 4219 1831 4219 
Q 1534 4219 1204 4116 
Q 875 4013 500 3803 
L 500 4441 
Q 881 4594 1212 4672 
Q 1544 4750 1819 4750 
Q 2544 4750 2975 4387 
Q 3406 4025 3406 3419 
Q 3406 3131 3298 2873 
Q 3191 2616 2906 2266 
Q 2828 2175 2409 1742 
Q 1991 1309 1228 531 
z
" transform="scale(0.015625)"/>
       </defs>
       <use xlink:href="#DejaVuSans-15"/>
       <use xlink:href="#DejaVuSans-13" transform="translate(63.625 0)"/>
       <use xlink:href="#DejaVuSans-13" transform="translate(127.25 0)"/>
      </g>
     </g>
    </g>
    <g id="xtick_4">
     <g id="line2d_7">
      <path d="M 301.03516 235.077656 
L 301.03516 53.811047 
" clip-path="url(#p197f0d0d80)" style="fill: none; stroke: #b0b0b0; stroke-opacity: 0.25; stroke-width: 0.6; stroke-linecap: square"/>
     </g>
     <g id="line2d_8">
      <g>
       <use xlink:href="#m72245d33ca" x="301.03516" y="235.077656" style="stroke: #000000; stroke-width: 0.8"/>
      </g>
     </g>
     <g id="text_4">
      <!-- 300 -->
      <g transform="translate(291.49141 249.675313) scale(0.1 -0.1)">
       <defs>
        <path id="DejaVuSans-16" d="M 2597 2516 
Q 3050 2419 3304 2112 
Q 3559 1806 3559 1356 
Q 3559 666 3084 287 
Q 2609 -91 1734 -91 
Q 1441 -91 1130 -33 
Q 819 25 488 141 
L 488 750 
Q 750 597 1062 519 
Q 1375 441 1716 441 
Q 2309 441 2620 675 
Q 2931 909 2931 1356 
Q 2931 1769 2642 2001 
Q 2353 2234 1838 2234 
L 1294 2234 
L 1294 2753 
L 1863 2753 
Q 2328 2753 2575 2939 
Q 2822 3125 2822 3475 
Q 2822 3834 2567 4026 
Q 2313 4219 1838 4219 
Q 1578 4219 1281 4162 
Q 984 4106 628 3988 
L 628 4550 
Q 988 4650 1302 4700 
Q 1616 4750 1894 4750 
Q 2613 4750 3031 4423 
Q 3450 4097 3450 3541 
Q 3450 3153 3228 2886 
Q 3006 2619 2597 2516 
z
" transform="scale(0.015625)"/>
       </defs>
       <use xlink:href="#DejaVuSans-16"/>
       <use xlink:href="#DejaVuSans-13" transform="translate(63.625 0)"/>
       <use xlink:href="#DejaVuSans-13" transform="translate(127.25 0)"/>
      </g>
     </g>
    </g>
    <g id="text_5">
     <!-- Batch size -->
     <g transform="translate(216.240625 263.676094) scale(0.1 -0.1)">
      <defs>
       <path id="DejaVuSans-25" d="M 1259 2228 
L 1259 519 
L 2272 519 
Q 2781 519 3026 730 
Q 3272 941 3272 1375 
Q 3272 1813 3026 2020 
Q 2781 2228 2272 2228 
L 1259 2228 
z
M 1259 4147 
L 1259 2741 
L 2194 2741 
Q 2656 2741 2882 2914 
Q 3109 3088 3109 3444 
Q 3109 3797 2882 3972 
Q 2656 4147 2194 4147 
L 1259 4147 
z
M 628 4666 
L 2241 4666 
Q 2963 4666 3353 4366 
Q 3744 4066 3744 3513 
Q 3744 3084 3544 2831 
Q 3344 2578 2956 2516 
Q 3422 2416 3680 2098 
Q 3938 1781 3938 1306 
Q 3938 681 3513 340 
Q 3088 0 2303 0 
L 628 0 
L 628 4666 
z
" transform="scale(0.015625)"/>
       <path id="DejaVuSans-44" d="M 2194 1759 
Q 1497 1759 1228 1600 
Q 959 1441 959 1056 
Q 959 750 1161 570 
Q 1363 391 1709 391 
Q 2188 391 2477 730 
Q 2766 1069 2766 1631 
L 2766 1759 
L 2194 1759 
z
M 3341 1997 
L 3341 0 
L 2766 0 
L 2766 531 
Q 2569 213 2275 61 
Q 1981 -91 1556 -91 
Q 1019 -91 701 211 
Q 384 513 384 1019 
Q 384 1609 779 1909 
Q 1175 2209 1959 2209 
L 2766 2209 
L 2766 2266 
Q 2766 2663 2505 2880 
Q 2244 3097 1772 3097 
Q 1472 3097 1187 3025 
Q 903 2953 641 2809 
L 641 3341 
Q 956 3463 1253 3523 
Q 1550 3584 1831 3584 
Q 2591 3584 2966 3190 
Q 3341 2797 3341 1997 
z
" transform="scale(0.015625)"/>
       <path id="DejaVuSans-57" d="M 1172 4494 
L 1172 3500 
L 2356 3500 
L 2356 3053 
L 1172 3053 
L 1172 1153 
Q 1172 725 1289 603 
Q 1406 481 1766 481 
L 2356 481 
L 2356 0 
L 1766 0 
Q 1100 0 847 248 
Q 594 497 594 1153 
L 594 3053 
L 172 3053 
L 172 3500 
L 594 3500 
L 594 4494 
L 1172 4494 
z
" transform="scale(0.015625)"/>
       <path id="DejaVuSans-46" d="M 3122 3366 
L 3122 2828 
Q 2878 2963 2633 3030 
Q 2388 3097 2138 3097 
Q 1578 3097 1268 2742 
Q 959 2388 959 1747 
Q 959 1106 1268 751 
Q 1578 397 2138 397 
Q 2388 397 2633 464 
Q 2878 531 3122 666 
L 3122 134 
Q 2881 22 2623 -34 
Q 2366 -91 2075 -91 
Q 1284 -91 818 406 
Q 353 903 353 1747 
Q 353 2603 823 3093 
Q 1294 3584 2113 3584 
Q 2378 3584 2631 3529 
Q 2884 3475 3122 3366 
z
" transform="scale(0.015625)"/>
       <path id="DejaVuSans-4b" d="M 3513 2113 
L 3513 0 
L 2938 0 
L 2938 2094 
Q 2938 2591 2744 2837 
Q 2550 3084 2163 3084 
Q 1697 3084 1428 2787 
Q 1159 2491 1159 1978 
L 1159 0 
L 581 0 
L 581 4863 
L 1159 4863 
L 1159 2956 
Q 1366 3272 1645 3428 
Q 1925 3584 2291 3584 
Q 2894 3584 3203 3211 
Q 3513 2838 3513 2113 
z
" transform="scale(0.015625)"/>
       <path id="DejaVuSans-3" transform="scale(0.015625)"/>
       <path id="DejaVuSans-56" d="M 2834 3397 
L 2834 2853 
Q 2591 2978 2328 3040 
Q 2066 3103 1784 3103 
Q 1356 3103 1142 2972 
Q 928 2841 928 2578 
Q 928 2378 1081 2264 
Q 1234 2150 1697 2047 
L 1894 2003 
Q 2506 1872 2764 1633 
Q 3022 1394 3022 966 
Q 3022 478 2636 193 
Q 2250 -91 1575 -91 
Q 1294 -91 989 -36 
Q 684 19 347 128 
L 347 722 
Q 666 556 975 473 
Q 1284 391 1588 391 
Q 1994 391 2212 530 
Q 2431 669 2431 922 
Q 2431 1156 2273 1281 
Q 2116 1406 1581 1522 
L 1381 1569 
Q 847 1681 609 1914 
Q 372 2147 372 2553 
Q 372 3047 722 3315 
Q 1072 3584 1716 3584 
Q 2034 3584 2315 3537 
Q 2597 3491 2834 3397 
z
" transform="scale(0.015625)"/>
       <path id="DejaVuSans-4c" d="M 603 3500 
L 1178 3500 
L 1178 0 
L 603 0 
L 603 3500 
z
M 603 4863 
L 1178 4863 
L 1178 4134 
L 603 4134 
L 603 4863 
z
" transform="scale(0.015625)"/>
       <path id="DejaVuSans-5d" d="M 353 3500 
L 3084 3500 
L 3084 2975 
L 922 459 
L 3084 459 
L 3084 0 
L 275 0 
L 275 525 
L 2438 3041 
L 353 3041 
L 353 3500 
z
" transform="scale(0.015625)"/>
       <path id="DejaVuSans-48" d="M 3597 1894 
L 3597 1613 
L 953 1613 
Q 991 1019 1311 708 
Q 1631 397 2203 397 
Q 2534 397 2845 478 
Q 3156 559 3463 722 
L 3463 178 
Q 3153 47 2828 -22 
Q 2503 -91 2169 -91 
Q 1331 -91 842 396 
Q 353 884 353 1716 
Q 353 2575 817 3079 
Q 1281 3584 2069 3584 
Q 2775 3584 3186 3129 
Q 3597 2675 3597 1894 
z
M 3022 2063 
Q 3016 2534 2758 2815 
Q 2500 3097 2075 3097 
Q 1594 3097 1305 2825 
Q 1016 2553 972 2059 
L 3022 2063 
z
" transform="scale(0.015625)"/>
      </defs>
      <use xlink:href="#DejaVuSans-25"/>
      <use xlink:href="#DejaVuSans-44" transform="translate(68.609375 0)"/>
      <use xlink:href="#DejaVuSans-57" transform="translate(129.890625 0)"/>
      <use xlink:href="#DejaVuSans-46" transform="translate(169.09375 0)"/>
      <use xlink:href="#DejaVuSans-4b" transform="translate(224.078125 0)"/>
      <use xlink:href="#DejaVuSans-3" transform="translate(287.453125 0)"/>
      <use xlink:href="#DejaVuSans-56" transform="translate(319.234375 0)"/>
      <use xlink:href="#DejaVuSans-4c" transform="translate(371.328125 0)"/>
      <use xlink:href="#DejaVuSans-5d" transform="translate(399.109375 0)"/>
      <use xlink:href="#DejaVuSans-48" transform="translate(451.59375 0)"/>
     </g>
    </g>
   </g>
   <g id="matplotlib.axis_2">
    <g id="ytick_1">
     <g id="line2d_9">
      <path d="M 151.39375 144.444352 
L 332.4 144.444352 
" clip-path="url(#p197f0d0d80)" style="fill: none; stroke: #b0b0b0; stroke-opacity: 0.25; stroke-width: 0.6; stroke-linecap: square"/>
     </g>
     <g id="line2d_10">
      <defs>
       <path id="m0f4097b76b" d="M 0 0 
L -3.5 0 
" style="stroke: #000000; stroke-width: 0.8"/>
      </defs>
      <g>
       <use xlink:href="#m0f4097b76b" x="151.39375" y="144.444352" style="stroke: #000000; stroke-width: 0.8"/>
      </g>
     </g>
     <g id="text_6">
      <!-- cuda (NVIDIA GeForce RTX 3060) -->
      <g transform="translate(12.2525 147.483727) scale(0.08 -0.08)">
       <defs>
        <path id="DejaVuSans-58" d="M 544 1381 
L 544 3500 
L 1119 3500 
L 1119 1403 
Q 1119 906 1312 657 
Q 1506 409 1894 409 
Q 2359 409 2629 706 
Q 2900 1003 2900 1516 
L 2900 3500 
L 3475 3500 
L 3475 0 
L 2900 0 
L 2900 538 
Q 2691 219 2414 64 
Q 2138 -91 1772 -91 
Q 1169 -91 856 284 
Q 544 659 544 1381 
z
M 1991 3584 
L 1991 3584 
z
" transform="scale(0.015625)"/>
        <path id="DejaVuSans-47" d="M 2906 2969 
L 2906 4863 
L 3481 4863 
L 3481 0 
L 2906 0 
L 2906 525 
Q 2725 213 2448 61 
Q 2172 -91 1784 -91 
Q 1150 -91 751 415 
Q 353 922 353 1747 
Q 353 2572 751 3078 
Q 1150 3584 1784 3584 
Q 2172 3584 2448 3432 
Q 2725 3281 2906 2969 
z
M 947 1747 
Q 947 1113 1208 752 
Q 1469 391 1925 391 
Q 2381 391 2643 752 
Q 2906 1113 2906 1747 
Q 2906 2381 2643 2742 
Q 2381 3103 1925 3103 
Q 1469 3103 1208 2742 
Q 947 2381 947 1747 
z
" transform="scale(0.015625)"/>
        <path id="DejaVuSans-b" d="M 1984 4856 
Q 1566 4138 1362 3434 
Q 1159 2731 1159 2009 
Q 1159 1288 1364 580 
Q 1569 -128 1984 -844 
L 1484 -844 
Q 1016 -109 783 600 
Q 550 1309 550 2009 
Q 550 2706 781 3412 
Q 1013 4119 1484 4856 
L 1984 4856 
z
" transform="scale(0.015625)"/>
        <path id="DejaVuSans-31" d="M 628 4666 
L 1478 4666 
L 3547 763 
L 3547 4666 
L 4159 4666 
L 4159 0 
L 3309 0 
L 1241 3903 
L 1241 0 
L 628 0 
L 628 4666 
z
" transform="scale(0.015625)"/>
        <path id="DejaVuSans-39" d="M 1831 0 
L 50 4666 
L 709 4666 
L 2188 738 
L 3669 4666 
L 4325 4666 
L 2547 0 
L 1831 0 
z
" transform="scale(0.015625)"/>
        <path id="DejaVuSans-2c" d="M 628 4666 
L 1259 4666 
L 1259 0 
L 628 0 
L 628 4666 
z
" transform="scale(0.015625)"/>
        <path id="DejaVuSans-27" d="M 1259 4147 
L 1259 519 
L 2022 519 
Q 2988 519 3436 956 
Q 3884 1394 3884 2338 
Q 3884 3275 3436 3711 
Q 2988 4147 2022 4147 
L 1259 4147 
z
M 628 4666 
L 1925 4666 
Q 3281 4666 3915 4102 
Q 4550 3538 4550 2338 
Q 4550 1131 3912 565 
Q 3275 0 1925 0 
L 628 0 
L 628 4666 
z
" transform="scale(0.015625)"/>
        <path id="DejaVuSans-24" d="M 2188 4044 
L 1331 1722 
L 3047 1722 
L 2188 4044 
z
M 1831 4666 
L 2547 4666 
L 4325 0 
L 3669 0 
L 3244 1197 
L 1141 1197 
L 716 0 
L 50 0 
L 1831 4666 
z
" transform="scale(0.015625)"/>
        <path id="DejaVuSans-2a" d="M 3809 666 
L 3809 1919 
L 2778 1919 
L 2778 2438 
L 4434 2438 
L 4434 434 
Q 4069 175 3628 42 
Q 3188 -91 2688 -91 
Q 1594 -91 976 548 
Q 359 1188 359 2328 
Q 359 3472 976 4111 
Q 1594 4750 2688 4750 
Q 3144 4750 3555 4637 
Q 3966 4525 4313 4306 
L 4313 3634 
Q 3963 3931 3569 4081 
Q 3175 4231 2741 4231 
Q 1884 4231 1454 3753 
Q 1025 3275 1025 2328 
Q 1025 1384 1454 906 
Q 1884 428 2741 428 
Q 3075 428 3337 486 
Q 3600 544 3809 666 
z
" transform="scale(0.015625)"/>
        <path id="DejaVuSans-29" d="M 628 4666 
L 3309 4666 
L 3309 4134 
L 1259 4134 
L 1259 2759 
L 3109 2759 
L 3109 2228 
L 1259 2228 
L 1259 0 
L 628 0 
L 628 4666 
z
" transform="scale(0.015625)"/>
        <path id="DejaVuSans-52" d="M 1959 3097 
Q 1497 3097 1228 2736 
Q 959 2375 959 1747 
Q 959 1119 1226 758 
Q 1494 397 1959 397 
Q 2419 397 2687 759 
Q 2956 1122 2956 1747 
Q 2956 2369 2687 2733 
Q 2419 3097 1959 3097 
z
M 1959 3584 
Q 2709 3584 3137 3096 
Q 3566 2609 3566 1747 
Q 3566 888 3137 398 
Q 2709 -91 1959 -91 
Q 1206 -91 779 398 
Q 353 888 353 1747 
Q 353 2609 779 3096 
Q 1206 3584 1959 3584 
z
" transform="scale(0.015625)"/>
        <path id="DejaVuSans-55" d="M 2631 2963 
Q 2534 3019 2420 3045 
Q 2306 3072 2169 3072 
Q 1681 3072 1420 2755 
Q 1159 2438 1159 1844 
L 1159 0 
L 581 0 
L 581 3500 
L 1159 3500 
L 1159 2956 
Q 1341 3275 1631 3429 
Q 1922 3584 2338 3584 
Q 2397 3584 2469 3576 
Q 2541 3569 2628 3553 
L 2631 2963 
z
" transform="scale(0.015625)"/>
        <path id="DejaVuSans-35" d="M 2841 2188 
Q 3044 2119 3236 1894 
Q 3428 1669 3622 1275 
L 4263 0 
L 3584 0 
L 2988 1197 
Q 2756 1666 2539 1819 
Q 2322 1972 1947 1972 
L 1259 1972 
L 1259 0 
L 628 0 
L 628 4666 
L 2053 4666 
Q 2853 4666 3247 4331 
Q 3641 3997 3641 3322 
Q 3641 2881 3436 2590 
Q 3231 2300 2841 2188 
z
M 1259 4147 
L 1259 2491 
L 2053 2491 
Q 2509 2491 2742 2702 
Q 2975 2913 2975 3322 
Q 2975 3731 2742 3939 
Q 2509 4147 2053 4147 
L 1259 4147 
z
" transform="scale(0.015625)"/>
        <path id="DejaVuSans-37" d="M -19 4666 
L 3928 4666 
L 3928 4134 
L 2272 4134 
L 2272 0 
L 1638 0 
L 1638 4134 
L -19 4134 
L -19 4666 
z
" transform="scale(0.015625)"/>
        <path id="DejaVuSans-3b" d="M 403 4666 
L 1081 4666 
L 2241 2931 
L 3406 4666 
L 4084 4666 
L 2584 2425 
L 4184 0 
L 3506 0 
L 2194 1984 
L 872 0 
L 191 0 
L 1856 2491 
L 403 4666 
z
" transform="scale(0.015625)"/>
        <path id="DejaVuSans-19" d="M 2113 2584 
Q 1688 2584 1439 2293 
Q 1191 2003 1191 1497 
Q 1191 994 1439 701 
Q 1688 409 2113 409 
Q 2538 409 2786 701 
Q 3034 994 3034 1497 
Q 3034 2003 2786 2293 
Q 2538 2584 2113 2584 
z
M 3366 4563 
L 3366 3988 
Q 3128 4100 2886 4159 
Q 2644 4219 2406 4219 
Q 1781 4219 1451 3797 
Q 1122 3375 1075 2522 
Q 1259 2794 1537 2939 
Q 1816 3084 2150 3084 
Q 2853 3084 3261 2657 
Q 3669 2231 3669 1497 
Q 3669 778 3244 343 
Q 2819 -91 2113 -91 
Q 1303 -91 875 529 
Q 447 1150 447 2328 
Q 447 3434 972 4092 
Q 1497 4750 2381 4750 
Q 2619 4750 2861 4703 
Q 3103 4656 3366 4563 
z
" transform="scale(0.015625)"/>
        <path id="DejaVuSans-c" d="M 513 4856 
L 1013 4856 
Q 1481 4119 1714 3412 
Q 1947 2706 1947 2009 
Q 1947 1309 1714 600 
Q 1481 -109 1013 -844 
L 513 -844 
Q 928 -128 1133 580 
Q 1338 1288 1338 2009 
Q 1338 2731 1133 3434 
Q 928 4138 513 4856 
z
" transform="scale(0.015625)"/>
       </defs>
       <use xlink:href="#DejaVuSans-46"/>
       <use xlink:href="#DejaVuSans-58" transform="translate(54.984375 0)"/>
       <use xlink:href="#DejaVuSans-47" transform="translate(118.359375 0)"/>
       <use xlink:href="#DejaVuSans-44" transform="translate(181.84375 0)"/>
       <use xlink:href="#DejaVuSans-3" transform="translate(243.125 0)"/>
       <use xlink:href="#DejaVuSans-b" transform="translate(274.90625 0)"/>
       <use xlink:href="#DejaVuSans-31" transform="translate(313.921875 0)"/>
       <use xlink:href="#DejaVuSans-39" transform="translate(388.734375 0)"/>
       <use xlink:href="#DejaVuSans-2c" transform="translate(457.140625 0)"/>
       <use xlink:href="#DejaVuSans-27" transform="translate(486.640625 0)"/>
       <use xlink:href="#DejaVuSans-2c" transform="translate(563.640625 0)"/>
       <use xlink:href="#DejaVuSans-24" transform="translate(593.140625 0)"/>
       <use xlink:href="#DejaVuSans-3" transform="translate(661.546875 0)"/>
       <use xlink:href="#DejaVuSans-2a" transform="translate(693.328125 0)"/>
       <use xlink:href="#DejaVuSans-48" transform="translate(770.8125 0)"/>
       <use xlink:href="#DejaVuSans-29" transform="translate(832.34375 0)"/>
       <use xlink:href="#DejaVuSans-52" transform="translate(886.296875 0)"/>
       <use xlink:href="#DejaVuSans-55" transform="translate(947.484375 0)"/>
       <use xlink:href="#DejaVuSans-46" transform="translate(986.390625 0)"/>
       <use xlink:href="#DejaVuSans-48" transform="translate(1041.375 0)"/>
       <use xlink:href="#DejaVuSans-3" transform="translate(1102.90625 0)"/>
       <use xlink:href="#DejaVuSans-35" transform="translate(1134.6875 0)"/>
       <use xlink:href="#DejaVuSans-37" transform="translate(1196.890625 0)"/>
       <use xlink:href="#DejaVuSans-3b" transform="translate(1257.96875 0)"/>
       <use xlink:href="#DejaVuSans-3" transform="translate(1326.46875 0)"/>
       <use xlink:href="#DejaVuSans-16" transform="translate(1358.25 0)"/>
       <use xlink:href="#DejaVuSans-13" transform="translate(1421.875 0)"/>
       <use xlink:href="#DejaVuSans-19" transform="translate(1485.5 0)"/>
       <use xlink:href="#DejaVuSans-13" transform="translate(1549.125 0)"/>
       <use xlink:href="#DejaVuSans-c" transform="translate(1612.75 0)"/>
      </g>
     </g>
    </g>
   </g>
   <g id="patch_4">
    <path d="M 151.39375 235.077656 
L 151.39375 53.811047 
" style="fill: none; stroke: #000000; stroke-width: 0.8; stroke-linejoin: miter; stroke-linecap: square"/>
   </g>
   <g id="patch_5">
    <path d="M 151.39375 235.077656 
L 332.4 235.077656 
" style="fill: none; stroke: #000000; stroke-width: 0.8; stroke-linejoin: miter; stroke-linecap: square"/>
   </g>
   <g id="text_7">
    <!--  256 -->
    <g transform="translate(279.087754 142.062027) scale(0.07 -0.07)">
     <defs>
      <path id="DejaVuSans-18" d="M 691 4666 
L 3169 4666 
L 3169 4134 
L 1269 4134 
L 1269 2991 
Q 1406 3038 1543 3061 
Q 1681 3084 1819 3084 
Q 2600 3084 3056 2656 
Q 3513 2228 3513 1497 
Q 3513 744 3044 326 
Q 2575 -91 1722 -91 
Q 1428 -91 1123 -41 
Q 819 9 494 109 
L 494 744 
Q 775 591 1075 516 
Q 1375 441 1709 441 
Q 2250 441 2565 725 
Q 2881 1009 2881 1497 
Q 2881 1984 2565 2268 
Q 2250 2553 1709 2553 
Q 1456 2553 1204 2497 
Q 953 2441 691 2322 
L 691 4666 
z
" transform="scale(0.015625)"/>
     </defs>
     <use xlink:href="#DejaVuSans-3"/>
     <use xlink:href="#DejaVuSans-15" transform="translate(31.78125 0)"/>
     <use xlink:href="#DejaVuSans-18" transform="translate(95.40625 0)"/>
     <use xlink:href="#DejaVuSans-19" transform="translate(159.03125 0)"/>
    </g>
    <!--  oom -->
    <g transform="translate(279.087754 150.463395) scale(0.07 -0.07)">
     <defs>
      <path id="DejaVuSans-50" d="M 3328 2828 
Q 3544 3216 3844 3400 
Q 4144 3584 4550 3584 
Q 5097 3584 5394 3201 
Q 5691 2819 5691 2113 
L 5691 0 
L 5113 0 
L 5113 2094 
Q 5113 2597 4934 2840 
Q 4756 3084 4391 3084 
Q 3944 3084 3684 2787 
Q 3425 2491 3425 1978 
L 3425 0 
L 2847 0 
L 2847 2094 
Q 2847 2600 2669 2842 
Q 2491 3084 2119 3084 
Q 1678 3084 1418 2786 
Q 1159 2488 1159 1978 
L 1159 0 
L 581 0 
L 581 3500 
L 1159 3500 
L 1159 2956 
Q 1356 3278 1631 3431 
Q 1906 3584 2284 3584 
Q 2666 3584 2933 3390 
Q 3200 3197 3328 2828 
z
" transform="scale(0.015625)"/>
     </defs>
     <use xlink:href="#DejaVuSans-3"/>
     <use xlink:href="#DejaVuSans-52" transform="translate(31.78125 0)"/>
     <use xlink:href="#DejaVuSans-52" transform="translate(92.96875 0)"/>
     <use xlink:href="#DejaVuSans-50" transform="translate(154.15625 0)"/>
    </g>
   </g>
  </g>
  <g id="axes_2">
   <g id="patch_6">
    <path d="M 483.79375 235.077656 
L 664.8 235.077656 
L 664.8 53.811047 
L 483.79375 53.811047 
z
" style="fill: #ffffff"/>
   </g>
   <g id="patch_7">
    <path d="M 483.79375 62.050438 
L 611.487754 62.050438 
L 611.487754 226.838265 
L 483.79375 226.838265 
z
" clip-path="url(#p2c2e6c6e6c)" style="fill: #2ca02c; opacity: 0.85"/>
   </g>
   <g id="matplotlib.axis_3">
    <g id="xtick_5">
     <g id="line2d_11">
      <path d="M 483.79375 235.077656 
L 483.79375 53.811047 
" clip-path="url(#p2c2e6c6e6c)" style="fill: none; stroke: #b0b0b0; stroke-opacity: 0.25; stroke-width: 0.6; stroke-linecap: square"/>
     </g>
     <g id="line2d_12">
      <g>
       <use xlink:href="#m72245d33ca" x="483.79375" y="235.077656" style="stroke: #000000; stroke-width: 0.8"/>
      </g>
     </g>
     <g id="text_8">
      <!-- 0 -->
      <g transform="translate(480.6125 249.675313) scale(0.1 -0.1)">
       <use xlink:href="#DejaVuSans-13"/>
      </g>
     </g>
    </g>
    <g id="xtick_6">
     <g id="line2d_13">
      <path d="M 514.969044 235.077656 
L 514.969044 53.811047 
" clip-path="url(#p2c2e6c6e6c)" style="fill: none; stroke: #b0b0b0; stroke-opacity: 0.25; stroke-width: 0.6; stroke-linecap: square"/>
     </g>
     <g id="line2d_14">
      <g>
       <use xlink:href="#m72245d33ca" x="514.969044" y="235.077656" style="stroke: #000000; stroke-width: 0.8"/>
      </g>
     </g>
     <g id="text_9">
      <!-- 1000 -->
      <g transform="translate(502.244044 249.675313) scale(0.1 -0.1)">
       <use xlink:href="#DejaVuSans-14"/>
       <use xlink:href="#DejaVuSans-13" transform="translate(63.625 0)"/>
       <use xlink:href="#DejaVuSans-13" transform="translate(127.25 0)"/>
       <use xlink:href="#DejaVuSans-13" transform="translate(190.875 0)"/>
      </g>
     </g>
    </g>
    <g id="xtick_7">
     <g id="line2d_15">
      <path d="M 546.144338 235.077656 
L 546.144338 53.811047 
" clip-path="url(#p2c2e6c6e6c)" style="fill: none; stroke: #b0b0b0; stroke-opacity: 0.25; stroke-width: 0.6; stroke-linecap: square"/>
     </g>
     <g id="line2d_16">
      <g>
       <use xlink:href="#m72245d33ca" x="546.144338" y="235.077656" style="stroke: #000000; stroke-width: 0.8"/>
      </g>
     </g>
     <g id="text_10">
      <!-- 2000 -->
      <g transform="translate(533.419338 249.675313) scale(0.1 -0.1)">
       <use xlink:href="#DejaVuSans-15"/>
       <use xlink:href="#DejaVuSans-13" transform="translate(63.625 0)"/>
       <use xlink:href="#DejaVuSans-13" transform="translate(127.25 0)"/>
       <use xlink:href="#DejaVuSans-13" transform="translate(190.875 0)"/>
      </g>
     </g>
    </g>
    <g id="xtick_8">
     <g id="line2d_17">
      <path d="M 577.319631 235.077656 
L 577.319631 53.811047 
" clip-path="url(#p2c2e6c6e6c)" style="fill: none; stroke: #b0b0b0; stroke-opacity: 0.25; stroke-width: 0.6; stroke-linecap: square"/>
     </g>
     <g id="line2d_18">
      <g>
       <use xlink:href="#m72245d33ca" x="577.319631" y="235.077656" style="stroke: #000000; stroke-width: 0.8"/>
      </g>
     </g>
     <g id="text_11">
      <!-- 3000 -->
      <g transform="translate(564.594631 249.675313) scale(0.1 -0.1)">
       <use xlink:href="#DejaVuSans-16"/>
       <use xlink:href="#DejaVuSans-13" transform="translate(63.625 0)"/>
       <use xlink:href="#DejaVuSans-13" transform="translate(127.25 0)"/>
       <use xlink:href="#DejaVuSans-13" transform="translate(190.875 0)"/>
      </g>
     </g>
    </g>
    <g id="xtick_9">
     <g id="line2d_19">
      <path d="M 608.494925 235.077656 
L 608.494925 53.811047 
" clip-path="url(#p2c2e6c6e6c)" style="fill: none; stroke: #b0b0b0; stroke-opacity: 0.25; stroke-width: 0.6; stroke-linecap: square"/>
     </g>
     <g id="line2d_20">
      <g>
       <use xlink:href="#m72245d33ca" x="608.494925" y="235.077656" style="stroke: #000000; stroke-width: 0.8"/>
      </g>
     </g>
     <g id="text_12">
      <!-- 4000 -->
      <g transform="translate(595.769925 249.675313) scale(0.1 -0.1)">
       <defs>
        <path id="DejaVuSans-17" d="M 2419 4116 
L 825 1625 
L 2419 1625 
L 2419 4116 
z
M 2253 4666 
L 3047 4666 
L 3047 1625 
L 3713 1625 
L 3713 1100 
L 3047 1100 
L 3047 0 
L 2419 0 
L 2419 1100 
L 313 1100 
L 313 1709 
L 2253 4666 
z
" transform="scale(0.015625)"/>
       </defs>
       <use xlink:href="#DejaVuSans-17"/>
       <use xlink:href="#DejaVuSans-13" transform="translate(63.625 0)"/>
       <use xlink:href="#DejaVuSans-13" transform="translate(127.25 0)"/>
       <use xlink:href="#DejaVuSans-13" transform="translate(190.875 0)"/>
      </g>
     </g>
    </g>
    <g id="xtick_10">
     <g id="line2d_21">
      <path d="M 639.670219 235.077656 
L 639.670219 53.811047 
" clip-path="url(#p2c2e6c6e6c)" style="fill: none; stroke: #b0b0b0; stroke-opacity: 0.25; stroke-width: 0.6; stroke-linecap: square"/>
     </g>
     <g id="line2d_22">
      <g>
       <use xlink:href="#m72245d33ca" x="639.670219" y="235.077656" style="stroke: #000000; stroke-width: 0.8"/>
      </g>
     </g>
     <g id="text_13">
      <!-- 5000 -->
      <g transform="translate(626.945219 249.675313) scale(0.1 -0.1)">
       <use xlink:href="#DejaVuSans-18"/>
       <use xlink:href="#DejaVuSans-13" transform="translate(63.625 0)"/>
       <use xlink:href="#DejaVuSans-13" transform="translate(127.25 0)"/>
       <use xlink:href="#DejaVuSans-13" transform="translate(190.875 0)"/>
      </g>
     </g>
    </g>
    <g id="text_14">
     <!-- Sequence length (tokens) -->
     <g transform="translate(510.028125 263.676094) scale(0.1 -0.1)">
      <defs>
       <path id="DejaVuSans-36" d="M 3425 4513 
L 3425 3897 
Q 3066 4069 2747 4153 
Q 2428 4238 2131 4238 
Q 1616 4238 1336 4038 
Q 1056 3838 1056 3469 
Q 1056 3159 1242 3001 
Q 1428 2844 1947 2747 
L 2328 2669 
Q 3034 2534 3370 2195 
Q 3706 1856 3706 1288 
Q 3706 609 3251 259 
Q 2797 -91 1919 -91 
Q 1588 -91 1214 -16 
Q 841 59 441 206 
L 441 856 
Q 825 641 1194 531 
Q 1563 422 1919 422 
Q 2459 422 2753 634 
Q 3047 847 3047 1241 
Q 3047 1584 2836 1778 
Q 2625 1972 2144 2069 
L 1759 2144 
Q 1053 2284 737 2584 
Q 422 2884 422 3419 
Q 422 4038 858 4394 
Q 1294 4750 2059 4750 
Q 2388 4750 2728 4690 
Q 3069 4631 3425 4513 
z
" transform="scale(0.015625)"/>
       <path id="DejaVuSans-54" d="M 947 1747 
Q 947 1113 1208 752 
Q 1469 391 1925 391 
Q 2381 391 2643 752 
Q 2906 1113 2906 1747 
Q 2906 2381 2643 2742 
Q 2381 3103 1925 3103 
Q 1469 3103 1208 2742 
Q 947 2381 947 1747 
z
M 2906 525 
Q 2725 213 2448 61 
Q 2172 -91 1784 -91 
Q 1150 -91 751 415 
Q 353 922 353 1747 
Q 353 2572 751 3078 
Q 1150 3584 1784 3584 
Q 2172 3584 2448 3432 
Q 2725 3281 2906 2969 
L 2906 3500 
L 3481 3500 
L 3481 -1331 
L 2906 -1331 
L 2906 525 
z
" transform="scale(0.015625)"/>
       <path id="DejaVuSans-51" d="M 3513 2113 
L 3513 0 
L 2938 0 
L 2938 2094 
Q 2938 2591 2744 2837 
Q 2550 3084 2163 3084 
Q 1697 3084 1428 2787 
Q 1159 2491 1159 1978 
L 1159 0 
L 581 0 
L 581 3500 
L 1159 3500 
L 1159 2956 
Q 1366 3272 1645 3428 
Q 1925 3584 2291 3584 
Q 2894 3584 3203 3211 
Q 3513 2838 3513 2113 
z
" transform="scale(0.015625)"/>
       <path id="DejaVuSans-4f" d="M 603 4863 
L 1178 4863 
L 1178 0 
L 603 0 
L 603 4863 
z
" transform="scale(0.015625)"/>
       <path id="DejaVuSans-4a" d="M 2906 1791 
Q 2906 2416 2648 2759 
Q 2391 3103 1925 3103 
Q 1463 3103 1205 2759 
Q 947 2416 947 1791 
Q 947 1169 1205 825 
Q 1463 481 1925 481 
Q 2391 481 2648 825 
Q 2906 1169 2906 1791 
z
M 3481 434 
Q 3481 -459 3084 -895 
Q 2688 -1331 1869 -1331 
Q 1566 -1331 1297 -1286 
Q 1028 -1241 775 -1147 
L 775 -588 
Q 1028 -725 1275 -790 
Q 1522 -856 1778 -856 
Q 2344 -856 2625 -561 
Q 2906 -266 2906 331 
L 2906 616 
Q 2728 306 2450 153 
Q 2172 0 1784 0 
Q 1141 0 747 490 
Q 353 981 353 1791 
Q 353 2603 747 3093 
Q 1141 3584 1784 3584 
Q 2172 3584 2450 3431 
Q 2728 3278 2906 2969 
L 2906 3500 
L 3481 3500 
L 3481 434 
z
" transform="scale(0.015625)"/>
       <path id="DejaVuSans-4e" d="M 581 4863 
L 1159 4863 
L 1159 1991 
L 2875 3500 
L 3609 3500 
L 1753 1863 
L 3688 0 
L 2938 0 
L 1159 1709 
L 1159 0 
L 581 0 
L 581 4863 
z
" transform="scale(0.015625)"/>
      </defs>
      <use xlink:href="#DejaVuSans-36"/>
      <use xlink:href="#DejaVuSans-48" transform="translate(63.484375 0)"/>
      <use xlink:href="#DejaVuSans-54" transform="translate(125.015625 0)"/>
      <use xlink:href="#DejaVuSans-58" transform="translate(188.5 0)"/>
      <use xlink:href="#DejaVuSans-48" transform="translate(251.875 0)"/>
      <use xlink:href="#DejaVuSans-51" transform="translate(313.40625 0)"/>
      <use xlink:href="#DejaVuSans-46" transform="translate(376.78125 0)"/>
      <use xlink:href="#DejaVuSans-48" transform="translate(431.765625 0)"/>
      <use xlink:href="#DejaVuSans-3" transform="translate(493.296875 0)"/>
      <use xlink:href="#DejaVuSans-4f" transform="translate(525.078125 0)"/>
      <use xlink:href="#DejaVuSans-48" transform="translate(552.859375 0)"/>
      <use xlink:href="#DejaVuSans-51" transform="translate(614.390625 0)"/>
      <use xlink:href="#DejaVuSans-4a" transform="translate(677.765625 0)"/>
      <use xlink:href="#DejaVuSans-57" transform="translate(741.25 0)"/>
      <use xlink:href="#DejaVuSans-4b" transform="translate(780.453125 0)"/>
      <use xlink:href="#DejaVuSans-3" transform="translate(843.828125 0)"/>
      <use xlink:href="#DejaVuSans-b" transform="translate(875.609375 0)"/>
      <use xlink:href="#DejaVuSans-57" transform="translate(914.625 0)"/>
      <use xlink:href="#DejaVuSans-52" transform="translate(953.828125 0)"/>
      <use xlink:href="#DejaVuSans-4e" transform="translate(1015.015625 0)"/>
      <use xlink:href="#DejaVuSans-48" transform="translate(1069.359375 0)"/>
      <use xlink:href="#DejaVuSans-51" transform="translate(1130.890625 0)"/>
      <use xlink:href="#DejaVuSans-56" transform="translate(1194.265625 0)"/>
      <use xlink:href="#DejaVuSans-c" transform="translate(1246.359375 0)"/>
     </g>
    </g>
   </g>
   <g id="matplotlib.axis_4">
    <g id="ytick_2">
     <g id="line2d_23">
      <path d="M 483.79375 144.444352 
L 664.8 144.444352 
" clip-path="url(#p2c2e6c6e6c)" style="fill: none; stroke: #b0b0b0; stroke-opacity: 0.25; stroke-width: 0.6; stroke-linecap: square"/>
     </g>
     <g id="line2d_24">
      <g>
       <use xlink:href="#m0f4097b76b" x="483.79375" y="144.444352" style="stroke: #000000; stroke-width: 0.8"/>
      </g>
     </g>
     <g id="text_15">
      <!-- cuda (NVIDIA GeForce RTX 3060) -->
      <g transform="translate(344.6525 147.483727) scale(0.08 -0.08)">
       <use xlink:href="#DejaVuSans-46"/>
       <use xlink:href="#DejaVuSans-58" transform="translate(54.984375 0)"/>
       <use xlink:href="#DejaVuSans-47" transform="translate(118.359375 0)"/>
       <use xlink:href="#DejaVuSans-44" transform="translate(181.84375 0)"/>
       <use xlink:href="#DejaVuSans-3" transform="translate(243.125 0)"/>
       <use xlink:href="#DejaVuSans-b" transform="translate(274.90625 0)"/>
       <use xlink:href="#DejaVuSans-31" transform="translate(313.921875 0)"/>
       <use xlink:href="#DejaVuSans-39" transform="translate(388.734375 0)"/>
       <use xlink:href="#DejaVuSans-2c" transform="translate(457.140625 0)"/>
       <use xlink:href="#DejaVuSans-27" transform="translate(486.640625 0)"/>
       <use xlink:href="#DejaVuSans-2c" transform="translate(563.640625 0)"/>
       <use xlink:href="#DejaVuSans-24" transform="translate(593.140625 0)"/>
       <use xlink:href="#DejaVuSans-3" transform="translate(661.546875 0)"/>
       <use xlink:href="#DejaVuSans-2a" transform="translate(693.328125 0)"/>
       <use xlink:href="#DejaVuSans-48" transform="translate(770.8125 0)"/>
       <use xlink:href="#DejaVuSans-29" transform="translate(832.34375 0)"/>
       <use xlink:href="#DejaVuSans-52" transform="translate(886.296875 0)"/>
       <use xlink:href="#DejaVuSans-55" transform="translate(947.484375 0)"/>
       <use xlink:href="#DejaVuSans-46" transform="translate(986.390625 0)"/>
       <use xlink:href="#DejaVuSans-48" transform="translate(1041.375 0)"/>
       <use xlink:href="#DejaVuSans-3" transform="translate(1102.90625 0)"/>
       <use xlink:href="#DejaVuSans-35" transform="translate(1134.6875 0)"/>
       <use xlink:href="#DejaVuSans-37" transform="translate(1196.890625 0)"/>
       <use xlink:href="#DejaVuSans-3b" transform="translate(1257.96875 0)"/>
       <use xlink:href="#DejaVuSans-3" transform="translate(1326.46875 0)"/>
       <use xlink:href="#DejaVuSans-16" transform="translate(1358.25 0)"/>
       <use xlink:href="#DejaVuSans-13" transform="translate(1421.875 0)"/>
       <use xlink:href="#DejaVuSans-19" transform="translate(1485.5 0)"/>
       <use xlink:href="#DejaVuSans-13" transform="translate(1549.125 0)"/>
       <use xlink:href="#DejaVuSans-c" transform="translate(1612.75 0)"/>
      </g>
     </g>
    </g>
   </g>
   <g id="patch_8">
    <path d="M 483.79375 235.077656 
L 483.79375 53.811047 
" style="fill: none; stroke: #000000; stroke-width: 0.8; stroke-linejoin: miter; stroke-linecap: square"/>
   </g>
   <g id="patch_9">
    <path d="M 483.79375 235.077656 
L 664.8 235.077656 
" style="fill: none; stroke: #000000; stroke-width: 0.8; stroke-linejoin: miter; stroke-linecap: square"/>
   </g>
   <g id="text_16">
    <!--  4,096 -->
    <g transform="translate(611.487754 142.061754) scale(0.07 -0.07)">
     <defs>
      <path id="DejaVuSans-f" d="M 750 794 
L 1409 794 
L 1409 256 
L 897 -744 
L 494 -744 
L 750 256 
L 750 794 
z
" transform="scale(0.015625)"/>
      <path id="DejaVuSans-1c" d="M 703 97 
L 703 672 
Q 941 559 1184 500 
Q 1428 441 1663 441 
Q 2288 441 2617 861 
Q 2947 1281 2994 2138 
Q 2813 1869 2534 1725 
Q 2256 1581 1919 1581 
Q 1219 1581 811 2004 
Q 403 2428 403 3163 
Q 403 3881 828 4315 
Q 1253 4750 1959 4750 
Q 2769 4750 3195 4129 
Q 3622 3509 3622 2328 
Q 3622 1225 3098 567 
Q 2575 -91 1691 -91 
Q 1453 -91 1209 -44 
Q 966 3 703 97 
z
M 1959 2075 
Q 2384 2075 2632 2365 
Q 2881 2656 2881 3163 
Q 2881 3666 2632 3958 
Q 2384 4250 1959 4250 
Q 1534 4250 1286 3958 
Q 1038 3666 1038 3163 
Q 1038 2656 1286 2365 
Q 1534 2075 1959 2075 
z
" transform="scale(0.015625)"/>
     </defs>
     <use xlink:href="#DejaVuSans-3"/>
     <use xlink:href="#DejaVuSans-17" transform="translate(31.78125 0)"/>
     <use xlink:href="#DejaVuSans-f" transform="translate(95.40625 0)"/>
     <use xlink:href="#DejaVuSans-13" transform="translate(127.1875 0)"/>
     <use xlink:href="#DejaVuSans-1c" transform="translate(190.8125 0)"/>
     <use xlink:href="#DejaVuSans-19" transform="translate(254.4375 0)"/>
    </g>
    <!--  ceiling reached -->
    <g transform="translate(611.487754 150.463668) scale(0.07 -0.07)">
     <use xlink:href="#DejaVuSans-3"/>
     <use xlink:href="#DejaVuSans-46" transform="translate(31.78125 0)"/>
     <use xlink:href="#DejaVuSans-48" transform="translate(86.765625 0)"/>
     <use xlink:href="#DejaVuSans-4c" transform="translate(148.296875 0)"/>
     <use xlink:href="#DejaVuSans-4f" transform="translate(176.078125 0)"/>
     <use xlink:href="#DejaVuSans-4c" transform="translate(203.859375 0)"/>
     <use xlink:href="#DejaVuSans-51" transform="translate(231.640625 0)"/>
     <use xlink:href="#DejaVuSans-4a" transform="translate(295.015625 0)"/>
     <use xlink:href="#DejaVuSans-3" transform="translate(358.5 0)"/>
     <use xlink:href="#DejaVuSans-55" transform="translate(390.28125 0)"/>
     <use xlink:href="#DejaVuSans-48" transform="translate(429.1875 0)"/>
     <use xlink:href="#DejaVuSans-44" transform="translate(490.71875 0)"/>
     <use xlink:href="#DejaVuSans-46" transform="translate(552 0)"/>
     <use xlink:href="#DejaVuSans-4b" transform="translate(606.984375 0)"/>
     <use xlink:href="#DejaVuSans-48" transform="translate(670.359375 0)"/>
     <use xlink:href="#DejaVuSans-47" transform="translate(731.890625 0)"/>
    </g>
   </g>
  </g>
  <g id="axes_3">
   <g id="patch_10">
    <path d="M 816.19375 235.077656 
L 997.2 235.077656 
L 997.2 53.811047 
L 816.19375 53.811047 
z
" style="fill: #ffffff"/>
   </g>
   <g id="patch_11">
    <path d="M 816.19375 62.050438 
L 943.887754 62.050438 
L 943.887754 226.838265 
L 816.19375 226.838265 
z
" clip-path="url(#p2dee6fffe7)" style="fill: #2ca02c; opacity: 0.85"/>
   </g>
   <g id="matplotlib.axis_5">
    <g id="xtick_11">
     <g id="line2d_25">
      <path d="M 816.19375 235.077656 
L 816.19375 53.811047 
" clip-path="url(#p2dee6fffe7)" style="fill: none; stroke: #b0b0b0; stroke-opacity: 0.25; stroke-width: 0.6; stroke-linecap: square"/>
     </g>
     <g id="line2d_26">
      <g>
       <use xlink:href="#m72245d33ca" x="816.19375" y="235.077656" style="stroke: #000000; stroke-width: 0.8"/>
      </g>
     </g>
     <g id="text_17">
      <!-- 0 -->
      <g transform="translate(813.0125 249.675313) scale(0.1 -0.1)">
       <use xlink:href="#DejaVuSans-13"/>
      </g>
     </g>
    </g>
    <g id="xtick_12">
     <g id="line2d_27">
      <path d="M 847.187729 235.077656 
L 847.187729 53.811047 
" clip-path="url(#p2dee6fffe7)" style="fill: none; stroke: #b0b0b0; stroke-opacity: 0.25; stroke-width: 0.6; stroke-linecap: square"/>
     </g>
     <g id="line2d_28">
      <g>
       <use xlink:href="#m72245d33ca" x="847.187729" y="235.077656" style="stroke: #000000; stroke-width: 0.8"/>
      </g>
     </g>
     <g id="text_18">
      <!-- 50 -->
      <g transform="translate(840.825229 249.675313) scale(0.1 -0.1)">
       <use xlink:href="#DejaVuSans-18"/>
       <use xlink:href="#DejaVuSans-13" transform="translate(63.625 0)"/>
      </g>
     </g>
    </g>
    <g id="xtick_13">
     <g id="line2d_29">
      <path d="M 878.181708 235.077656 
L 878.181708 53.811047 
" clip-path="url(#p2dee6fffe7)" style="fill: none; stroke: #b0b0b0; stroke-opacity: 0.25; stroke-width: 0.6; stroke-linecap: square"/>
     </g>
     <g id="line2d_30">
      <g>
       <use xlink:href="#m72245d33ca" x="878.181708" y="235.077656" style="stroke: #000000; stroke-width: 0.8"/>
      </g>
     </g>
     <g id="text_19">
      <!-- 100 -->
      <g transform="translate(868.637958 249.675313) scale(0.1 -0.1)">
       <use xlink:href="#DejaVuSans-14"/>
       <use xlink:href="#DejaVuSans-13" transform="translate(63.625 0)"/>
       <use xlink:href="#DejaVuSans-13" transform="translate(127.25 0)"/>
      </g>
     </g>
    </g>
    <g id="xtick_14">
     <g id="line2d_31">
      <path d="M 909.175687 235.077656 
L 909.175687 53.811047 
" clip-path="url(#p2dee6fffe7)" style="fill: none; stroke: #b0b0b0; stroke-opacity: 0.25; stroke-width: 0.6; stroke-linecap: square"/>
     </g>
     <g id="line2d_32">
      <g>
       <use xlink:href="#m72245d33ca" x="909.175687" y="235.077656" style="stroke: #000000; stroke-width: 0.8"/>
      </g>
     </g>
     <g id="text_20">
      <!-- 150 -->
      <g transform="translate(899.631937 249.675313) scale(0.1 -0.1)">
       <use xlink:href="#DejaVuSans-14"/>
       <use xlink:href="#DejaVuSans-18" transform="translate(63.625 0)"/>
       <use xlink:href="#DejaVuSans-13" transform="translate(127.25 0)"/>
      </g>
     </g>
    </g>
    <g id="xtick_15">
     <g id="line2d_33">
      <path d="M 940.169666 235.077656 
L 940.169666 53.811047 
" clip-path="url(#p2dee6fffe7)" style="fill: none; stroke: #b0b0b0; stroke-opacity: 0.25; stroke-width: 0.6; stroke-linecap: square"/>
     </g>
     <g id="line2d_34">
      <g>
       <use xlink:href="#m72245d33ca" x="940.169666" y="235.077656" style="stroke: #000000; stroke-width: 0.8"/>
      </g>
     </g>
     <g id="text_21">
      <!-- 200 -->
      <g transform="translate(930.625916 249.675313) scale(0.1 -0.1)">
       <use xlink:href="#DejaVuSans-15"/>
       <use xlink:href="#DejaVuSans-13" transform="translate(63.625 0)"/>
       <use xlink:href="#DejaVuSans-13" transform="translate(127.25 0)"/>
      </g>
     </g>
    </g>
    <g id="xtick_16">
     <g id="line2d_35">
      <path d="M 971.163645 235.077656 
L 971.163645 53.811047 
" clip-path="url(#p2dee6fffe7)" style="fill: none; stroke: #b0b0b0; stroke-opacity: 0.25; stroke-width: 0.6; stroke-linecap: square"/>
     </g>
     <g id="line2d_36">
      <g>
       <use xlink:href="#m72245d33ca" x="971.163645" y="235.077656" style="stroke: #000000; stroke-width: 0.8"/>
      </g>
     </g>
     <g id="text_22">
      <!-- 250 -->
      <g transform="translate(961.619895 249.675313) scale(0.1 -0.1)">
       <use xlink:href="#DejaVuSans-15"/>
       <use xlink:href="#DejaVuSans-18" transform="translate(63.625 0)"/>
       <use xlink:href="#DejaVuSans-13" transform="translate(127.25 0)"/>
      </g>
     </g>
    </g>
    <g id="text_23">
     <!-- Model size (M parameters) -->
     <g transform="translate(840.004688 263.676094) scale(0.1 -0.1)">
      <defs>
       <path id="DejaVuSans-30" d="M 628 4666 
L 1569 4666 
L 2759 1491 
L 3956 4666 
L 4897 4666 
L 4897 0 
L 4281 0 
L 4281 4097 
L 3078 897 
L 2444 897 
L 1241 4097 
L 1241 0 
L 628 0 
L 628 4666 
z
" transform="scale(0.015625)"/>
       <path id="DejaVuSans-53" d="M 1159 525 
L 1159 -1331 
L 581 -1331 
L 581 3500 
L 1159 3500 
L 1159 2969 
Q 1341 3281 1617 3432 
Q 1894 3584 2278 3584 
Q 2916 3584 3314 3078 
Q 3713 2572 3713 1747 
Q 3713 922 3314 415 
Q 2916 -91 2278 -91 
Q 1894 -91 1617 61 
Q 1341 213 1159 525 
z
M 3116 1747 
Q 3116 2381 2855 2742 
Q 2594 3103 2138 3103 
Q 1681 3103 1420 2742 
Q 1159 2381 1159 1747 
Q 1159 1113 1420 752 
Q 1681 391 2138 391 
Q 2594 391 2855 752 
Q 3116 1113 3116 1747 
z
" transform="scale(0.015625)"/>
      </defs>
      <use xlink:href="#DejaVuSans-30"/>
      <use xlink:href="#DejaVuSans-52" transform="translate(86.28125 0)"/>
      <use xlink:href="#DejaVuSans-47" transform="translate(147.46875 0)"/>
      <use xlink:href="#DejaVuSans-48" transform="translate(210.953125 0)"/>
      <use xlink:href="#DejaVuSans-4f" transform="translate(272.484375 0)"/>
      <use xlink:href="#DejaVuSans-3" transform="translate(300.265625 0)"/>
      <use xlink:href="#DejaVuSans-56" transform="translate(332.046875 0)"/>
      <use xlink:href="#DejaVuSans-4c" transform="translate(384.140625 0)"/>
      <use xlink:href="#DejaVuSans-5d" transform="translate(411.921875 0)"/>
      <use xlink:href="#DejaVuSans-48" transform="translate(464.40625 0)"/>
      <use xlink:href="#DejaVuSans-3" transform="translate(525.9375 0)"/>
      <use xlink:href="#DejaVuSans-b" transform="translate(557.71875 0)"/>
      <use xlink:href="#DejaVuSans-30" transform="translate(596.734375 0)"/>
      <use xlink:href="#DejaVuSans-3" transform="translate(683.015625 0)"/>
      <use xlink:href="#DejaVuSans-53" transform="translate(714.796875 0)"/>
      <use xlink:href="#DejaVuSans-44" transform="translate(778.28125 0)"/>
      <use xlink:href="#DejaVuSans-55" transform="translate(839.5625 0)"/>
      <use xlink:href="#DejaVuSans-44" transform="translate(880.671875 0)"/>
      <use xlink:href="#DejaVuSans-50" transform="translate(941.953125 0)"/>
      <use xlink:href="#DejaVuSans-48" transform="translate(1039.359375 0)"/>
      <use xlink:href="#DejaVuSans-57" transform="translate(1100.890625 0)"/>
      <use xlink:href="#DejaVuSans-48" transform="translate(1140.09375 0)"/>
      <use xlink:href="#DejaVuSans-55" transform="translate(1201.625 0)"/>
      <use xlink:href="#DejaVuSans-56" transform="translate(1242.734375 0)"/>
      <use xlink:href="#DejaVuSans-c" transform="translate(1294.828125 0)"/>
     </g>
    </g>
   </g>
   <g id="matplotlib.axis_6">
    <g id="ytick_3">
     <g id="line2d_37">
      <path d="M 816.19375 144.444352 
L 997.2 144.444352 
" clip-path="url(#p2dee6fffe7)" style="fill: none; stroke: #b0b0b0; stroke-opacity: 0.25; stroke-width: 0.6; stroke-linecap: square"/>
     </g>
     <g id="line2d_38">
      <g>
       <use xlink:href="#m0f4097b76b" x="816.19375" y="144.444352" style="stroke: #000000; stroke-width: 0.8"/>
      </g>
     </g>
     <g id="text_24">
      <!-- cuda (NVIDIA GeForce RTX 3060) -->
      <g transform="translate(677.0525 147.483727) scale(0.08 -0.08)">
       <use xlink:href="#DejaVuSans-46"/>
       <use xlink:href="#DejaVuSans-58" transform="translate(54.984375 0)"/>
       <use xlink:href="#DejaVuSans-47" transform="translate(118.359375 0)"/>
       <use xlink:href="#DejaVuSans-44" transform="translate(181.84375 0)"/>
       <use xlink:href="#DejaVuSans-3" transform="translate(243.125 0)"/>
       <use xlink:href="#DejaVuSans-b" transform="translate(274.90625 0)"/>
       <use xlink:href="#DejaVuSans-31" transform="translate(313.921875 0)"/>
       <use xlink:href="#DejaVuSans-39" transform="translate(388.734375 0)"/>
       <use xlink:href="#DejaVuSans-2c" transform="translate(457.140625 0)"/>
       <use xlink:href="#DejaVuSans-27" transform="translate(486.640625 0)"/>
       <use xlink:href="#DejaVuSans-2c" transform="translate(563.640625 0)"/>
       <use xlink:href="#DejaVuSans-24" transform="translate(593.140625 0)"/>
       <use xlink:href="#DejaVuSans-3" transform="translate(661.546875 0)"/>
       <use xlink:href="#DejaVuSans-2a" transform="translate(693.328125 0)"/>
       <use xlink:href="#DejaVuSans-48" transform="translate(770.8125 0)"/>
       <use xlink:href="#DejaVuSans-29" transform="translate(832.34375 0)"/>
       <use xlink:href="#DejaVuSans-52" transform="translate(886.296875 0)"/>
       <use xlink:href="#DejaVuSans-55" transform="translate(947.484375 0)"/>
       <use xlink:href="#DejaVuSans-46" transform="translate(986.390625 0)"/>
       <use xlink:href="#DejaVuSans-48" transform="translate(1041.375 0)"/>
       <use xlink:href="#DejaVuSans-3" transform="translate(1102.90625 0)"/>
       <use xlink:href="#DejaVuSans-35" transform="translate(1134.6875 0)"/>
       <use xlink:href="#DejaVuSans-37" transform="translate(1196.890625 0)"/>
       <use xlink:href="#DejaVuSans-3b" transform="translate(1257.96875 0)"/>
       <use xlink:href="#DejaVuSans-3" transform="translate(1326.46875 0)"/>
       <use xlink:href="#DejaVuSans-16" transform="translate(1358.25 0)"/>
       <use xlink:href="#DejaVuSans-13" transform="translate(1421.875 0)"/>
       <use xlink:href="#DejaVuSans-19" transform="translate(1485.5 0)"/>
       <use xlink:href="#DejaVuSans-13" transform="translate(1549.125 0)"/>
       <use xlink:href="#DejaVuSans-c" transform="translate(1612.75 0)"/>
      </g>
     </g>
    </g>
   </g>
   <g id="patch_12">
    <path d="M 816.19375 235.077656 
L 816.19375 53.811047 
" style="fill: none; stroke: #000000; stroke-width: 0.8; stroke-linejoin: miter; stroke-linecap: square"/>
   </g>
   <g id="patch_13">
    <path d="M 816.19375 235.077656 
L 997.2 235.077656 
" style="fill: none; stroke: #000000; stroke-width: 0.8; stroke-linejoin: miter; stroke-linecap: square"/>
   </g>
   <g id="text_25">
    <!--  206 [xl] -->
    <g transform="translate(943.887754 142.062027) scale(0.07 -0.07)">
     <defs>
      <path id="DejaVuSans-3e" d="M 550 4863 
L 1875 4863 
L 1875 4416 
L 1125 4416 
L 1125 -397 
L 1875 -397 
L 1875 -844 
L 550 -844 
L 550 4863 
z
" transform="scale(0.015625)"/>
      <path id="DejaVuSans-5b" d="M 3513 3500 
L 2247 1797 
L 3578 0 
L 2900 0 
L 1881 1375 
L 863 0 
L 184 0 
L 1544 1831 
L 300 3500 
L 978 3500 
L 1906 2253 
L 2834 3500 
L 3513 3500 
z
" transform="scale(0.015625)"/>
      <path id="DejaVuSans-40" d="M 1947 4863 
L 1947 -844 
L 622 -844 
L 622 -397 
L 1369 -397 
L 1369 4416 
L 622 4416 
L 622 4863 
L 1947 4863 
z
" transform="scale(0.015625)"/>
     </defs>
     <use xlink:href="#DejaVuSans-3"/>
     <use xlink:href="#DejaVuSans-15" transform="translate(31.78125 0)"/>
     <use xlink:href="#DejaVuSans-13" transform="translate(95.40625 0)"/>
     <use xlink:href="#DejaVuSans-19" transform="translate(159.03125 0)"/>
     <use xlink:href="#DejaVuSans-3" transform="translate(222.65625 0)"/>
     <use xlink:href="#DejaVuSans-3e" transform="translate(254.4375 0)"/>
     <use xlink:href="#DejaVuSans-5b" transform="translate(293.453125 0)"/>
     <use xlink:href="#DejaVuSans-4f" transform="translate(352.640625 0)"/>
     <use xlink:href="#DejaVuSans-40" transform="translate(380.421875 0)"/>
    </g>
    <!--  ceiling reached -->
    <g transform="translate(943.887754 150.463941) scale(0.07 -0.07)">
     <use xlink:href="#DejaVuSans-3"/>
     <use xlink:href="#DejaVuSans-46" transform="translate(31.78125 0)"/>
     <use xlink:href="#DejaVuSans-48" transform="translate(86.765625 0)"/>
     <use xlink:href="#DejaVuSans-4c" transform="translate(148.296875 0)"/>
     <use xlink:href="#DejaVuSans-4f" transform="translate(176.078125 0)"/>
     <use xlink:href="#DejaVuSans-4c" transform="translate(203.859375 0)"/>
     <use xlink:href="#DejaVuSans-51" transform="translate(231.640625 0)"/>
     <use xlink:href="#DejaVuSans-4a" transform="translate(295.015625 0)"/>
     <use xlink:href="#DejaVuSans-3" transform="translate(358.5 0)"/>
     <use xlink:href="#DejaVuSans-55" transform="translate(390.28125 0)"/>
     <use xlink:href="#DejaVuSans-48" transform="translate(429.1875 0)"/>
     <use xlink:href="#DejaVuSans-44" transform="translate(490.71875 0)"/>
     <use xlink:href="#DejaVuSans-46" transform="translate(552 0)"/>
     <use xlink:href="#DejaVuSans-4b" transform="translate(606.984375 0)"/>
     <use xlink:href="#DejaVuSans-48" transform="translate(670.359375 0)"/>
     <use xlink:href="#DejaVuSans-47" transform="translate(731.890625 0)"/>
    </g>
   </g>
  </g>
  <g id="text_26">
   <!-- Largest configuration that ran successfully (one dimension varied at a time) -->
   <g transform="translate(10.08 16.213969) scale(0.13 -0.13)">
    <defs>
     <path id="DejaVuSans-Bold-2f" d="M 588 4666 
L 1791 4666 
L 1791 909 
L 3903 909 
L 3903 0 
L 588 0 
L 588 4666 
z
" transform="scale(0.015625)"/>
     <path id="DejaVuSans-Bold-44" d="M 2106 1575 
Q 1756 1575 1579 1456 
Q 1403 1338 1403 1106 
Q 1403 894 1545 773 
Q 1688 653 1941 653 
Q 2256 653 2472 879 
Q 2688 1106 2688 1447 
L 2688 1575 
L 2106 1575 
z
M 3816 1997 
L 3816 0 
L 2688 0 
L 2688 519 
Q 2463 200 2181 54 
Q 1900 -91 1497 -91 
Q 953 -91 614 226 
Q 275 544 275 1050 
Q 275 1666 698 1953 
Q 1122 2241 2028 2241 
L 2688 2241 
L 2688 2328 
Q 2688 2594 2478 2717 
Q 2269 2841 1825 2841 
Q 1466 2841 1156 2769 
Q 847 2697 581 2553 
L 581 3406 
Q 941 3494 1303 3539 
Q 1666 3584 2028 3584 
Q 2975 3584 3395 3211 
Q 3816 2838 3816 1997 
z
" transform="scale(0.015625)"/>
     <path id="DejaVuSans-Bold-55" d="M 3138 2547 
Q 2991 2616 2845 2648 
Q 2700 2681 2553 2681 
Q 2122 2681 1889 2404 
Q 1656 2128 1656 1613 
L 1656 0 
L 538 0 
L 538 3500 
L 1656 3500 
L 1656 2925 
Q 1872 3269 2151 3426 
Q 2431 3584 2822 3584 
Q 2878 3584 2943 3579 
Q 3009 3575 3134 3559 
L 3138 2547 
z
" transform="scale(0.015625)"/>
     <path id="DejaVuSans-Bold-4a" d="M 2919 594 
Q 2688 288 2409 144 
Q 2131 0 1766 0 
Q 1125 0 706 504 
Q 288 1009 288 1791 
Q 288 2575 706 3076 
Q 1125 3578 1766 3578 
Q 2131 3578 2409 3434 
Q 2688 3291 2919 2981 
L 2919 3500 
L 4044 3500 
L 4044 353 
Q 4044 -491 3511 -936 
Q 2978 -1381 1966 -1381 
Q 1638 -1381 1331 -1331 
Q 1025 -1281 716 -1178 
L 716 -306 
Q 1009 -475 1290 -558 
Q 1572 -641 1856 -641 
Q 2406 -641 2662 -400 
Q 2919 -159 2919 353 
L 2919 594 
z
M 2181 2772 
Q 1834 2772 1640 2515 
Q 1447 2259 1447 1791 
Q 1447 1309 1634 1061 
Q 1822 813 2181 813 
Q 2531 813 2725 1069 
Q 2919 1325 2919 1791 
Q 2919 2259 2725 2515 
Q 2531 2772 2181 2772 
z
" transform="scale(0.015625)"/>
     <path id="DejaVuSans-Bold-48" d="M 4031 1759 
L 4031 1441 
L 1416 1441 
Q 1456 1047 1700 850 
Q 1944 653 2381 653 
Q 2734 653 3104 758 
Q 3475 863 3866 1075 
L 3866 213 
Q 3469 63 3072 -14 
Q 2675 -91 2278 -91 
Q 1328 -91 801 392 
Q 275 875 275 1747 
Q 275 2603 792 3093 
Q 1309 3584 2216 3584 
Q 3041 3584 3536 3087 
Q 4031 2591 4031 1759 
z
M 2881 2131 
Q 2881 2450 2695 2645 
Q 2509 2841 2209 2841 
Q 1884 2841 1681 2658 
Q 1478 2475 1428 2131 
L 2881 2131 
z
" transform="scale(0.015625)"/>
     <path id="DejaVuSans-Bold-56" d="M 3272 3391 
L 3272 2541 
Q 2913 2691 2578 2766 
Q 2244 2841 1947 2841 
Q 1628 2841 1473 2761 
Q 1319 2681 1319 2516 
Q 1319 2381 1436 2309 
Q 1553 2238 1856 2203 
L 2053 2175 
Q 2913 2066 3209 1816 
Q 3506 1566 3506 1031 
Q 3506 472 3093 190 
Q 2681 -91 1863 -91 
Q 1516 -91 1145 -36 
Q 775 19 384 128 
L 384 978 
Q 719 816 1070 734 
Q 1422 653 1784 653 
Q 2113 653 2278 743 
Q 2444 834 2444 1013 
Q 2444 1163 2330 1236 
Q 2216 1309 1875 1350 
L 1678 1375 
Q 931 1469 631 1722 
Q 331 1975 331 2491 
Q 331 3047 712 3315 
Q 1094 3584 1881 3584 
Q 2191 3584 2531 3537 
Q 2872 3491 3272 3391 
z
" transform="scale(0.015625)"/>
     <path id="DejaVuSans-Bold-57" d="M 1759 4494 
L 1759 3500 
L 2913 3500 
L 2913 2700 
L 1759 2700 
L 1759 1216 
Q 1759 972 1856 886 
Q 1953 800 2241 800 
L 2816 800 
L 2816 0 
L 1856 0 
Q 1194 0 917 276 
Q 641 553 641 1216 
L 641 2700 
L 84 2700 
L 84 3500 
L 641 3500 
L 641 4494 
L 1759 4494 
z
" transform="scale(0.015625)"/>
     <path id="DejaVuSans-Bold-3" transform="scale(0.015625)"/>
     <path id="DejaVuSans-Bold-46" d="M 3366 3391 
L 3366 2478 
Q 3138 2634 2908 2709 
Q 2678 2784 2431 2784 
Q 1963 2784 1702 2511 
Q 1441 2238 1441 1747 
Q 1441 1256 1702 982 
Q 1963 709 2431 709 
Q 2694 709 2930 787 
Q 3166 866 3366 1019 
L 3366 103 
Q 3103 6 2833 -42 
Q 2563 -91 2291 -91 
Q 1344 -91 809 395 
Q 275 881 275 1747 
Q 275 2613 809 3098 
Q 1344 3584 2291 3584 
Q 2566 3584 2833 3536 
Q 3100 3488 3366 3391 
z
" transform="scale(0.015625)"/>
     <path id="DejaVuSans-Bold-52" d="M 2203 2784 
Q 1831 2784 1636 2517 
Q 1441 2250 1441 1747 
Q 1441 1244 1636 976 
Q 1831 709 2203 709 
Q 2569 709 2762 976 
Q 2956 1244 2956 1747 
Q 2956 2250 2762 2517 
Q 2569 2784 2203 2784 
z
M 2203 3584 
Q 3106 3584 3614 3096 
Q 4122 2609 4122 1747 
Q 4122 884 3614 396 
Q 3106 -91 2203 -91 
Q 1297 -91 786 396 
Q 275 884 275 1747 
Q 275 2609 786 3096 
Q 1297 3584 2203 3584 
z
" transform="scale(0.015625)"/>
     <path id="DejaVuSans-Bold-51" d="M 4056 2131 
L 4056 0 
L 2931 0 
L 2931 347 
L 2931 1631 
Q 2931 2084 2911 2256 
Q 2891 2428 2841 2509 
Q 2775 2619 2662 2680 
Q 2550 2741 2406 2741 
Q 2056 2741 1856 2470 
Q 1656 2200 1656 1722 
L 1656 0 
L 538 0 
L 538 3500 
L 1656 3500 
L 1656 2988 
Q 1909 3294 2193 3439 
Q 2478 3584 2822 3584 
Q 3428 3584 3742 3212 
Q 4056 2841 4056 2131 
z
" transform="scale(0.015625)"/>
     <path id="DejaVuSans-Bold-13ab" d="M 3078 4863 
L 4206 4863 
L 4206 3950 
L 3078 3950 
L 3078 4863 
z
M 2847 4863 
L 2847 4128 
L 2228 4128 
Q 1994 4128 1903 4042 
Q 1813 3956 1813 3744 
L 1813 3500 
L 4206 3500 
L 4206 0 
L 3078 0 
L 3078 2700 
L 1813 2700 
L 1813 0 
L 684 0 
L 684 2700 
L 134 2700 
L 134 3500 
L 684 3500 
L 684 3744 
Q 684 4316 1003 4589 
Q 1322 4863 1991 4863 
L 2847 4863 
z
" transform="scale(0.015625)"/>
     <path id="DejaVuSans-Bold-58" d="M 500 1363 
L 500 3500 
L 1625 3500 
L 1625 3150 
Q 1625 2866 1622 2436 
Q 1619 2006 1619 1863 
Q 1619 1441 1641 1255 
Q 1663 1069 1716 984 
Q 1784 875 1895 815 
Q 2006 756 2150 756 
Q 2500 756 2700 1025 
Q 2900 1294 2900 1772 
L 2900 3500 
L 4019 3500 
L 4019 0 
L 2900 0 
L 2900 506 
Q 2647 200 2364 54 
Q 2081 -91 1741 -91 
Q 1134 -91 817 281 
Q 500 653 500 1363 
z
" transform="scale(0.015625)"/>
     <path id="DejaVuSans-Bold-4c" d="M 538 3500 
L 1656 3500 
L 1656 0 
L 538 0 
L 538 3500 
z
M 538 4863 
L 1656 4863 
L 1656 3950 
L 538 3950 
L 538 4863 
z
" transform="scale(0.015625)"/>
     <path id="DejaVuSans-Bold-4b" d="M 4056 2131 
L 4056 0 
L 2931 0 
L 2931 347 
L 2931 1625 
Q 2931 2084 2911 2256 
Q 2891 2428 2841 2509 
Q 2775 2619 2662 2680 
Q 2550 2741 2406 2741 
Q 2056 2741 1856 2470 
Q 1656 2200 1656 1722 
L 1656 0 
L 538 0 
L 538 4863 
L 1656 4863 
L 1656 2988 
Q 1909 3294 2193 3439 
Q 2478 3584 2822 3584 
Q 3428 3584 3742 3212 
Q 4056 2841 4056 2131 
z
" transform="scale(0.015625)"/>
     <path id="DejaVuSans-Bold-49" d="M 2841 4863 
L 2841 4128 
L 2222 4128 
Q 1984 4128 1890 4042 
Q 1797 3956 1797 3744 
L 1797 3500 
L 2753 3500 
L 2753 2700 
L 1797 2700 
L 1797 0 
L 678 0 
L 678 2700 
L 122 2700 
L 122 3500 
L 678 3500 
L 678 3744 
Q 678 4316 997 4589 
Q 1316 4863 1984 4863 
L 2841 4863 
z
" transform="scale(0.015625)"/>
     <path id="DejaVuSans-Bold-4f" d="M 538 4863 
L 1656 4863 
L 1656 0 
L 538 0 
L 538 4863 
z
" transform="scale(0.015625)"/>
     <path id="DejaVuSans-Bold-5c" d="M 78 3500 
L 1197 3500 
L 2138 1125 
L 2938 3500 
L 4056 3500 
L 2584 -331 
Q 2363 -916 2067 -1148 
Q 1772 -1381 1288 -1381 
L 641 -1381 
L 641 -647 
L 991 -647 
Q 1275 -647 1404 -556 
Q 1534 -466 1606 -231 
L 1638 -134 
L 78 3500 
z
" transform="scale(0.015625)"/>
     <path id="DejaVuSans-Bold-b" d="M 2413 -844 
L 1484 -844 
Q 1006 -72 778 623 
Q 550 1319 550 2003 
Q 550 2688 779 3389 
Q 1009 4091 1484 4856 
L 2413 4856 
Q 2013 4116 1813 3408 
Q 1613 2700 1613 2009 
Q 1613 1319 1811 609 
Q 2009 -100 2413 -844 
z
" transform="scale(0.015625)"/>
     <path id="DejaVuSans-Bold-47" d="M 2919 2988 
L 2919 4863 
L 4044 4863 
L 4044 0 
L 2919 0 
L 2919 506 
Q 2688 197 2409 53 
Q 2131 -91 1766 -91 
Q 1119 -91 703 423 
Q 288 938 288 1747 
Q 288 2556 703 3070 
Q 1119 3584 1766 3584 
Q 2128 3584 2408 3439 
Q 2688 3294 2919 2988 
z
M 2181 722 
Q 2541 722 2730 984 
Q 2919 1247 2919 1747 
Q 2919 2247 2730 2509 
Q 2541 2772 2181 2772 
Q 1825 2772 1636 2509 
Q 1447 2247 1447 1747 
Q 1447 1247 1636 984 
Q 1825 722 2181 722 
z
" transform="scale(0.015625)"/>
     <path id="DejaVuSans-Bold-50" d="M 3781 2919 
Q 3994 3244 4286 3414 
Q 4578 3584 4928 3584 
Q 5531 3584 5847 3212 
Q 6163 2841 6163 2131 
L 6163 0 
L 5038 0 
L 5038 1825 
Q 5041 1866 5042 1909 
Q 5044 1953 5044 2034 
Q 5044 2406 4934 2573 
Q 4825 2741 4581 2741 
Q 4263 2741 4089 2478 
Q 3916 2216 3909 1719 
L 3909 0 
L 2784 0 
L 2784 1825 
Q 2784 2406 2684 2573 
Q 2584 2741 2328 2741 
Q 2006 2741 1831 2477 
Q 1656 2213 1656 1722 
L 1656 0 
L 531 0 
L 531 3500 
L 1656 3500 
L 1656 2988 
Q 1863 3284 2130 3434 
Q 2397 3584 2719 3584 
Q 3081 3584 3359 3409 
Q 3638 3234 3781 2919 
z
" transform="scale(0.015625)"/>
     <path id="DejaVuSans-Bold-59" d="M 97 3500 
L 1216 3500 
L 2088 1081 
L 2956 3500 
L 4078 3500 
L 2700 0 
L 1472 0 
L 97 3500 
z
" transform="scale(0.015625)"/>
     <path id="DejaVuSans-Bold-c" d="M 513 -844 
Q 913 -100 1113 609 
Q 1313 1319 1313 2009 
Q 1313 2700 1113 3408 
Q 913 4116 513 4856 
L 1441 4856 
Q 1916 4091 2145 3389 
Q 2375 2688 2375 2003 
Q 2375 1319 2147 623 
Q 1919 -72 1441 -844 
L 513 -844 
z
" transform="scale(0.015625)"/>
    </defs>
    <use xlink:href="#DejaVuSans-Bold-2f"/>
    <use xlink:href="#DejaVuSans-Bold-44" transform="translate(63.71875 0)"/>
    <use xlink:href="#DejaVuSans-Bold-55" transform="translate(131.203125 0)"/>
    <use xlink:href="#DejaVuSans-Bold-4a" transform="translate(180.515625 0)"/>
    <use xlink:href="#DejaVuSans-Bold-48" transform="translate(252.09375 0)"/>
    <use xlink:href="#DejaVuSans-Bold-56" transform="translate(319.921875 0)"/>
    <use xlink:href="#DejaVuSans-Bold-57" transform="translate(379.4375 0)"/>
    <use xlink:href="#DejaVuSans-Bold-3" transform="translate(427.234375 0)"/>
    <use xlink:href="#DejaVuSans-Bold-46" transform="translate(462.046875 0)"/>
    <use xlink:href="#DejaVuSans-Bold-52" transform="translate(521.328125 0)"/>
    <use xlink:href="#DejaVuSans-Bold-51" transform="translate(590.03125 0)"/>
    <use xlink:href="#DejaVuSans-Bold-13ab" transform="translate(661.21875 0)"/>
    <use xlink:href="#DejaVuSans-Bold-4a" transform="translate(735.34375 0)"/>
    <use xlink:href="#DejaVuSans-Bold-58" transform="translate(806.921875 0)"/>
    <use xlink:href="#DejaVuSans-Bold-55" transform="translate(878.109375 0)"/>
    <use xlink:href="#DejaVuSans-Bold-44" transform="translate(927.421875 0)"/>
    <use xlink:href="#DejaVuSans-Bold-57" transform="translate(994.90625 0)"/>
    <use xlink:href="#DejaVuSans-Bold-4c" transform="translate(1042.703125 0)"/>
    <use xlink:href="#DejaVuSans-Bold-52" transform="translate(1076.984375 0)"/>
    <use xlink:href="#DejaVuSans-Bold-51" transform="translate(1145.6875 0)"/>
    <use xlink:href="#DejaVuSans-Bold-3" transform="translate(1216.875 0)"/>
    <use xlink:href="#DejaVuSans-Bold-57" transform="translate(1251.6875 0)"/>
    <use xlink:href="#DejaVuSans-Bold-4b" transform="translate(1299.484375 0)"/>
    <use xlink:href="#DejaVuSans-Bold-44" transform="translate(1370.671875 0)"/>
    <use xlink:href="#DejaVuSans-Bold-57" transform="translate(1438.15625 0)"/>
    <use xlink:href="#DejaVuSans-Bold-3" transform="translate(1485.953125 0)"/>
    <use xlink:href="#DejaVuSans-Bold-55" transform="translate(1520.765625 0)"/>
    <use xlink:href="#DejaVuSans-Bold-44" transform="translate(1570.078125 0)"/>
    <use xlink:href="#DejaVuSans-Bold-51" transform="translate(1637.5625 0)"/>
    <use xlink:href="#DejaVuSans-Bold-3" transform="translate(1708.75 0)"/>
    <use xlink:href="#DejaVuSans-Bold-56" transform="translate(1743.5625 0)"/>
    <use xlink:href="#DejaVuSans-Bold-58" transform="translate(1803.078125 0)"/>
    <use xlink:href="#DejaVuSans-Bold-46" transform="translate(1874.265625 0)"/>
    <use xlink:href="#DejaVuSans-Bold-46" transform="translate(1933.546875 0)"/>
    <use xlink:href="#DejaVuSans-Bold-48" transform="translate(1992.828125 0)"/>
    <use xlink:href="#DejaVuSans-Bold-56" transform="translate(2060.65625 0)"/>
    <use xlink:href="#DejaVuSans-Bold-56" transform="translate(2120.171875 0)"/>
    <use xlink:href="#DejaVuSans-Bold-49" transform="translate(2179.6875 0)"/>
    <use xlink:href="#DejaVuSans-Bold-58" transform="translate(2223.1875 0)"/>
    <use xlink:href="#DejaVuSans-Bold-4f" transform="translate(2294.375 0)"/>
    <use xlink:href="#DejaVuSans-Bold-4f" transform="translate(2328.65625 0)"/>
    <use xlink:href="#DejaVuSans-Bold-5c" transform="translate(2362.9375 0)"/>
    <use xlink:href="#DejaVuSans-Bold-3" transform="translate(2428.125 0)"/>
    <use xlink:href="#DejaVuSans-Bold-b" transform="translate(2462.9375 0)"/>
    <use xlink:href="#DejaVuSans-Bold-52" transform="translate(2508.640625 0)"/>
    <use xlink:href="#DejaVuSans-Bold-51" transform="translate(2577.34375 0)"/>
    <use xlink:href="#DejaVuSans-Bold-48" transform="translate(2648.53125 0)"/>
    <use xlink:href="#DejaVuSans-Bold-3" transform="translate(2716.359375 0)"/>
    <use xlink:href="#DejaVuSans-Bold-47" transform="translate(2751.171875 0)"/>
    <use xlink:href="#DejaVuSans-Bold-4c" transform="translate(2822.75 0)"/>
    <use xlink:href="#DejaVuSans-Bold-50" transform="translate(2857.03125 0)"/>
    <use xlink:href="#DejaVuSans-Bold-48" transform="translate(2961.234375 0)"/>
    <use xlink:href="#DejaVuSans-Bold-51" transform="translate(3029.0625 0)"/>
    <use xlink:href="#DejaVuSans-Bold-56" transform="translate(3100.25 0)"/>
    <use xlink:href="#DejaVuSans-Bold-4c" transform="translate(3159.765625 0)"/>
    <use xlink:href="#DejaVuSans-Bold-52" transform="translate(3194.046875 0)"/>
    <use xlink:href="#DejaVuSans-Bold-51" transform="translate(3262.75 0)"/>
    <use xlink:href="#DejaVuSans-Bold-3" transform="translate(3333.9375 0)"/>
    <use xlink:href="#DejaVuSans-Bold-59" transform="translate(3368.75 0)"/>
    <use xlink:href="#DejaVuSans-Bold-44" transform="translate(3433.9375 0)"/>
    <use xlink:href="#DejaVuSans-Bold-55" transform="translate(3501.421875 0)"/>
    <use xlink:href="#DejaVuSans-Bold-4c" transform="translate(3550.734375 0)"/>
    <use xlink:href="#DejaVuSans-Bold-48" transform="translate(3585.015625 0)"/>
    <use xlink:href="#DejaVuSans-Bold-47" transform="translate(3652.84375 0)"/>
    <use xlink:href="#DejaVuSans-Bold-3" transform="translate(3724.421875 0)"/>
    <use xlink:href="#DejaVuSans-Bold-44" transform="translate(3759.234375 0)"/>
    <use xlink:href="#DejaVuSans-Bold-57" transform="translate(3826.71875 0)"/>
    <use xlink:href="#DejaVuSans-Bold-3" transform="translate(3874.515625 0)"/>
    <use xlink:href="#DejaVuSans-Bold-44" transform="translate(3909.328125 0)"/>
    <use xlink:href="#DejaVuSans-Bold-3" transform="translate(3976.8125 0)"/>
    <use xlink:href="#DejaVuSans-Bold-57" transform="translate(4011.625 0)"/>
    <use xlink:href="#DejaVuSans-Bold-4c" transform="translate(4059.421875 0)"/>
    <use xlink:href="#DejaVuSans-Bold-50" transform="translate(4093.703125 0)"/>
    <use xlink:href="#DejaVuSans-Bold-48" transform="translate(4197.90625 0)"/>
    <use xlink:href="#DejaVuSans-Bold-c" transform="translate(4265.734375 0)"/>
   </g>
  </g>
  <g id="text_27">
   <!-- Each ladder increases one dimension (others at the base configuration) until the first failure. 'ceiling reached' = the -->
   <g style="opacity: 0.75" transform="translate(10.08 293.288969) scale(0.08 -0.08)">
    <defs>
     <path id="DejaVuSans-28" d="M 628 4666 
L 3578 4666 
L 3578 4134 
L 1259 4134 
L 1259 2753 
L 3481 2753 
L 3481 2222 
L 1259 2222 
L 1259 531 
L 3634 531 
L 3634 0 
L 628 0 
L 628 4666 
z
" transform="scale(0.015625)"/>
     <path id="DejaVuSans-45" d="M 3116 1747 
Q 3116 2381 2855 2742 
Q 2594 3103 2138 3103 
Q 1681 3103 1420 2742 
Q 1159 2381 1159 1747 
Q 1159 1113 1420 752 
Q 1681 391 2138 391 
Q 2594 391 2855 752 
Q 3116 1113 3116 1747 
z
M 1159 2969 
Q 1341 3281 1617 3432 
Q 1894 3584 2278 3584 
Q 2916 3584 3314 3078 
Q 3713 2572 3713 1747 
Q 3713 922 3314 415 
Q 2916 -91 2278 -91 
Q 1894 -91 1617 61 
Q 1341 213 1159 525 
L 1159 0 
L 581 0 
L 581 4863 
L 1159 4863 
L 1159 2969 
z
" transform="scale(0.015625)"/>
     <path id="DejaVuSans-13af" d="M 3431 3500 
L 3431 0 
L 2853 0 
L 2853 3053 
L 1275 3053 
L 1275 0 
L 697 0 
L 697 3053 
L 147 3053 
L 147 3500 
L 697 3500 
L 697 3744 
Q 697 4316 967 4589 
Q 1238 4863 1797 4863 
L 2375 4863 
L 2375 4384 
L 1825 4384 
Q 1516 4384 1395 4259 
Q 1275 4134 1275 3809 
L 1275 3500 
L 3431 3500 
z
M 2853 4856 
L 3431 4856 
L 3431 4128 
L 2853 4128 
L 2853 4856 
z
" transform="scale(0.015625)"/>
     <path id="DejaVuSans-49" d="M 2375 4863 
L 2375 4384 
L 1825 4384 
Q 1516 4384 1395 4259 
Q 1275 4134 1275 3809 
L 1275 3500 
L 2222 3500 
L 2222 3053 
L 1275 3053 
L 1275 0 
L 697 0 
L 697 3053 
L 147 3053 
L 147 3500 
L 697 3500 
L 697 3744 
Q 697 4328 969 4595 
Q 1241 4863 1831 4863 
L 2375 4863 
z
" transform="scale(0.015625)"/>
     <path id="DejaVuSans-11" d="M 684 794 
L 1344 794 
L 1344 0 
L 684 0 
L 684 794 
z
" transform="scale(0.015625)"/>
     <path id="DejaVuSans-a" d="M 1147 4666 
L 1147 2931 
L 616 2931 
L 616 4666 
L 1147 4666 
z
" transform="scale(0.015625)"/>
     <path id="DejaVuSans-20" d="M 678 2906 
L 4684 2906 
L 4684 2381 
L 678 2381 
L 678 2906 
z
M 678 1631 
L 4684 1631 
L 4684 1100 
L 678 1100 
L 678 1631 
z
" transform="scale(0.015625)"/>
    </defs>
    <use xlink:href="#DejaVuSans-28"/>
    <use xlink:href="#DejaVuSans-44" transform="translate(63.1875 0)"/>
    <use xlink:href="#DejaVuSans-46" transform="translate(124.46875 0)"/>
    <use xlink:href="#DejaVuSans-4b" transform="translate(179.453125 0)"/>
    <use xlink:href="#DejaVuSans-3" transform="translate(242.828125 0)"/>
    <use xlink:href="#DejaVuSans-4f" transform="translate(274.609375 0)"/>
    <use xlink:href="#DejaVuSans-44" transform="translate(302.390625 0)"/>
    <use xlink:href="#DejaVuSans-47" transform="translate(363.671875 0)"/>
    <use xlink:href="#DejaVuSans-47" transform="translate(427.15625 0)"/>
    <use xlink:href="#DejaVuSans-48" transform="translate(490.640625 0)"/>
    <use xlink:href="#DejaVuSans-55" transform="translate(552.171875 0)"/>
    <use xlink:href="#DejaVuSans-3" transform="translate(593.28125 0)"/>
    <use xlink:href="#DejaVuSans-4c" transform="translate(625.0625 0)"/>
    <use xlink:href="#DejaVuSans-51" transform="translate(652.84375 0)"/>
    <use xlink:href="#DejaVuSans-46" transform="translate(716.21875 0)"/>
    <use xlink:href="#DejaVuSans-55" transform="translate(771.203125 0)"/>
    <use xlink:href="#DejaVuSans-48" transform="translate(810.109375 0)"/>
    <use xlink:href="#DejaVuSans-44" transform="translate(871.640625 0)"/>
    <use xlink:href="#DejaVuSans-56" transform="translate(932.921875 0)"/>
    <use xlink:href="#DejaVuSans-48" transform="translate(985.015625 0)"/>
    <use xlink:href="#DejaVuSans-56" transform="translate(1046.546875 0)"/>
    <use xlink:href="#DejaVuSans-3" transform="translate(1098.640625 0)"/>
    <use xlink:href="#DejaVuSans-52" transform="translate(1130.421875 0)"/>
    <use xlink:href="#DejaVuSans-51" transform="translate(1191.609375 0)"/>
    <use xlink:href="#DejaVuSans-48" transform="translate(1254.984375 0)"/>
    <use xlink:href="#DejaVuSans-3" transform="translate(1316.515625 0)"/>
    <use xlink:href="#DejaVuSans-47" transform="translate(1348.296875 0)"/>
    <use xlink:href="#DejaVuSans-4c" transform="translate(1411.78125 0)"/>
    <use xlink:href="#DejaVuSans-50" transform="translate(1439.5625 0)"/>
    <use xlink:href="#DejaVuSans-48" transform="translate(1536.96875 0)"/>
    <use xlink:href="#DejaVuSans-51" transform="translate(1598.5 0)"/>
    <use xlink:href="#DejaVuSans-56" transform="translate(1661.875 0)"/>
    <use xlink:href="#DejaVuSans-4c" transform="translate(1713.96875 0)"/>
    <use xlink:href="#DejaVuSans-52" transform="translate(1741.75 0)"/>
    <use xlink:href="#DejaVuSans-51" transform="translate(1802.9375 0)"/>
    <use xlink:href="#DejaVuSans-3" transform="translate(1866.3125 0)"/>
    <use xlink:href="#DejaVuSans-b" transform="translate(1898.09375 0)"/>
    <use xlink:href="#DejaVuSans-52" transform="translate(1937.109375 0)"/>
    <use xlink:href="#DejaVuSans-57" transform="translate(1998.296875 0)"/>
    <use xlink:href="#DejaVuSans-4b" transform="translate(2037.5 0)"/>
    <use xlink:href="#DejaVuSans-48" transform="translate(2100.875 0)"/>
    <use xlink:href="#DejaVuSans-55" transform="translate(2162.40625 0)"/>
    <use xlink:href="#DejaVuSans-56" transform="translate(2203.515625 0)"/>
    <use xlink:href="#DejaVuSans-3" transform="translate(2255.609375 0)"/>
    <use xlink:href="#DejaVuSans-44" transform="translate(2287.390625 0)"/>
    <use xlink:href="#DejaVuSans-57" transform="translate(2348.671875 0)"/>
    <use xlink:href="#DejaVuSans-3" transform="translate(2387.875 0)"/>
    <use xlink:href="#DejaVuSans-57" transform="translate(2419.65625 0)"/>
    <use xlink:href="#DejaVuSans-4b" transform="translate(2458.859375 0)"/>
    <use xlink:href="#DejaVuSans-48" transform="translate(2522.234375 0)"/>
    <use xlink:href="#DejaVuSans-3" transform="translate(2583.765625 0)"/>
    <use xlink:href="#DejaVuSans-45" transform="translate(2615.546875 0)"/>
    <use xlink:href="#DejaVuSans-44" transform="translate(2679.03125 0)"/>
    <use xlink:href="#DejaVuSans-56" transform="translate(2740.3125 0)"/>
    <use xlink:href="#DejaVuSans-48" transform="translate(2792.40625 0)"/>
    <use xlink:href="#DejaVuSans-3" transform="translate(2853.9375 0)"/>
    <use xlink:href="#DejaVuSans-46" transform="translate(2885.71875 0)"/>
    <use xlink:href="#DejaVuSans-52" transform="translate(2940.703125 0)"/>
    <use xlink:href="#DejaVuSans-51" transform="translate(3001.890625 0)"/>
    <use xlink:href="#DejaVuSans-13af" transform="translate(3065.265625 0)"/>
    <use xlink:href="#DejaVuSans-4a" transform="translate(3128.25 0)"/>
    <use xlink:href="#DejaVuSans-58" transform="translate(3191.734375 0)"/>
    <use xlink:href="#DejaVuSans-55" transform="translate(3255.109375 0)"/>
    <use xlink:href="#DejaVuSans-44" transform="translate(3296.21875 0)"/>
    <use xlink:href="#DejaVuSans-57" transform="translate(3357.5 0)"/>
    <use xlink:href="#DejaVuSans-4c" transform="translate(3396.703125 0)"/>
    <use xlink:href="#DejaVuSans-52" transform="translate(3424.484375 0)"/>
    <use xlink:href="#DejaVuSans-51" transform="translate(3485.671875 0)"/>
    <use xlink:href="#DejaVuSans-c" transform="translate(3549.046875 0)"/>
    <use xlink:href="#DejaVuSans-3" transform="translate(3588.0625 0)"/>
    <use xlink:href="#DejaVuSans-58" transform="translate(3619.84375 0)"/>
    <use xlink:href="#DejaVuSans-51" transform="translate(3683.21875 0)"/>
    <use xlink:href="#DejaVuSans-57" transform="translate(3746.59375 0)"/>
    <use xlink:href="#DejaVuSans-4c" transform="translate(3785.796875 0)"/>
    <use xlink:href="#DejaVuSans-4f" transform="translate(3813.578125 0)"/>
    <use xlink:href="#DejaVuSans-3" transform="translate(3841.359375 0)"/>
    <use xlink:href="#DejaVuSans-57" transform="translate(3873.140625 0)"/>
    <use xlink:href="#DejaVuSans-4b" transform="translate(3912.34375 0)"/>
    <use xlink:href="#DejaVuSans-48" transform="translate(3975.71875 0)"/>
    <use xlink:href="#DejaVuSans-3" transform="translate(4037.25 0)"/>
    <use xlink:href="#DejaVuSans-13af" transform="translate(4069.03125 0)"/>
    <use xlink:href="#DejaVuSans-55" transform="translate(4132.015625 0)"/>
    <use xlink:href="#DejaVuSans-56" transform="translate(4173.125 0)"/>
    <use xlink:href="#DejaVuSans-57" transform="translate(4225.21875 0)"/>
    <use xlink:href="#DejaVuSans-3" transform="translate(4264.421875 0)"/>
    <use xlink:href="#DejaVuSans-49" transform="translate(4296.203125 0)"/>
    <use xlink:href="#DejaVuSans-44" transform="translate(4331.40625 0)"/>
    <use xlink:href="#DejaVuSans-4c" transform="translate(4392.6875 0)"/>
    <use xlink:href="#DejaVuSans-4f" transform="translate(4420.46875 0)"/>
    <use xlink:href="#DejaVuSans-58" transform="translate(4448.25 0)"/>
    <use xlink:href="#DejaVuSans-55" transform="translate(4511.625 0)"/>
    <use xlink:href="#DejaVuSans-48" transform="translate(4550.53125 0)"/>
    <use xlink:href="#DejaVuSans-11" transform="translate(4612.0625 0)"/>
    <use xlink:href="#DejaVuSans-3" transform="translate(4643.84375 0)"/>
    <use xlink:href="#DejaVuSans-a" transform="translate(4675.625 0)"/>
    <use xlink:href="#DejaVuSans-46" transform="translate(4703.109375 0)"/>
    <use xlink:href="#DejaVuSans-48" transform="translate(4758.09375 0)"/>
    <use xlink:href="#DejaVuSans-4c" transform="translate(4819.625 0)"/>
    <use xlink:href="#DejaVuSans-4f" transform="translate(4847.40625 0)"/>
    <use xlink:href="#DejaVuSans-4c" transform="translate(4875.1875 0)"/>
    <use xlink:href="#DejaVuSans-51" transform="translate(4902.96875 0)"/>
    <use xlink:href="#DejaVuSans-4a" transform="translate(4966.34375 0)"/>
    <use xlink:href="#DejaVuSans-3" transform="translate(5029.828125 0)"/>
    <use xlink:href="#DejaVuSans-55" transform="translate(5061.609375 0)"/>
    <use xlink:href="#DejaVuSans-48" transform="translate(5100.515625 0)"/>
    <use xlink:href="#DejaVuSans-44" transform="translate(5162.046875 0)"/>
    <use xlink:href="#DejaVuSans-46" transform="translate(5223.328125 0)"/>
    <use xlink:href="#DejaVuSans-4b" transform="translate(5278.3125 0)"/>
    <use xlink:href="#DejaVuSans-48" transform="translate(5341.6875 0)"/>
    <use xlink:href="#DejaVuSans-47" transform="translate(5403.21875 0)"/>
    <use xlink:href="#DejaVuSans-a" transform="translate(5466.703125 0)"/>
    <use xlink:href="#DejaVuSans-3" transform="translate(5494.1875 0)"/>
    <use xlink:href="#DejaVuSans-20" transform="translate(5525.96875 0)"/>
    <use xlink:href="#DejaVuSans-3" transform="translate(5609.765625 0)"/>
    <use xlink:href="#DejaVuSans-57" transform="translate(5641.546875 0)"/>
    <use xlink:href="#DejaVuSans-4b" transform="translate(5680.75 0)"/>
    <use xlink:href="#DejaVuSans-48" transform="translate(5744.125 0)"/>
   </g>
   <!-- ladder's largest tested value succeeded, so the true maximum is at least this large. 'stopped by safety cap' = the -->
   <g style="opacity: 0.75" transform="translate(10.08 302.891156) scale(0.08 -0.08)">
    <defs>
     <path id="DejaVuSans-59" d="M 191 3500 
L 800 3500 
L 1894 563 
L 2988 3500 
L 3597 3500 
L 2284 0 
L 1503 0 
L 191 3500 
z
" transform="scale(0.015625)"/>
     <path id="DejaVuSans-5c" d="M 2059 -325 
Q 1816 -950 1584 -1140 
Q 1353 -1331 966 -1331 
L 506 -1331 
L 506 -850 
L 844 -850 
Q 1081 -850 1212 -737 
Q 1344 -625 1503 -206 
L 1606 56 
L 191 3500 
L 800 3500 
L 1894 763 
L 2988 3500 
L 3597 3500 
L 2059 -325 
z
" transform="scale(0.015625)"/>
    </defs>
    <use xlink:href="#DejaVuSans-4f"/>
    <use xlink:href="#DejaVuSans-44" transform="translate(27.78125 0)"/>
    <use xlink:href="#DejaVuSans-47" transform="translate(89.0625 0)"/>
    <use xlink:href="#DejaVuSans-47" transform="translate(152.546875 0)"/>
    <use xlink:href="#DejaVuSans-48" transform="translate(216.03125 0)"/>
    <use xlink:href="#DejaVuSans-55" transform="translate(277.5625 0)"/>
    <use xlink:href="#DejaVuSans-a" transform="translate(318.671875 0)"/>
    <use xlink:href="#DejaVuSans-56" transform="translate(346.15625 0)"/>
    <use xlink:href="#DejaVuSans-3" transform="translate(398.25 0)"/>
    <use xlink:href="#DejaVuSans-4f" transform="translate(430.03125 0)"/>
    <use xlink:href="#DejaVuSans-44" transform="translate(457.8125 0)"/>
    <use xlink:href="#DejaVuSans-55" transform="translate(519.09375 0)"/>
    <use xlink:href="#DejaVuSans-4a" transform="translate(558.453125 0)"/>
    <use xlink:href="#DejaVuSans-48" transform="translate(621.9375 0)"/>
    <use xlink:href="#DejaVuSans-56" transform="translate(683.46875 0)"/>
    <use xlink:href="#DejaVuSans-57" transform="translate(735.5625 0)"/>
    <use xlink:href="#DejaVuSans-3" transform="translate(774.765625 0)"/>
    <use xlink:href="#DejaVuSans-57" transform="translate(806.546875 0)"/>
    <use xlink:href="#DejaVuSans-48" transform="translate(845.75 0)"/>
    <use xlink:href="#DejaVuSans-56" transform="translate(907.28125 0)"/>
    <use xlink:href="#DejaVuSans-57" transform="translate(959.375 0)"/>
    <use xlink:href="#DejaVuSans-48" transform="translate(998.578125 0)"/>
    <use xlink:href="#DejaVuSans-47" transform="translate(1060.109375 0)"/>
    <use xlink:href="#DejaVuSans-3" transform="translate(1123.59375 0)"/>
    <use xlink:href="#DejaVuSans-59" transform="translate(1155.375 0)"/>
    <use xlink:href="#DejaVuSans-44" transform="translate(1214.5625 0)"/>
    <use xlink:href="#DejaVuSans-4f" transform="translate(1275.84375 0)"/>
    <use xlink:href="#DejaVuSans-58" transform="translate(1303.625 0)"/>
    <use xlink:href="#DejaVuSans-48" transform="translate(1367 0)"/>
    <use xlink:href="#DejaVuSans-3" transform="translate(1428.53125 0)"/>
    <use xlink:href="#DejaVuSans-56" transform="translate(1460.3125 0)"/>
    <use xlink:href="#DejaVuSans-58" transform="translate(1512.40625 0)"/>
    <use xlink:href="#DejaVuSans-46" transform="translate(1575.78125 0)"/>
    <use xlink:href="#DejaVuSans-46" transform="translate(1630.765625 0)"/>
    <use xlink:href="#DejaVuSans-48" transform="translate(1685.75 0)"/>
    <use xlink:href="#DejaVuSans-48" transform="translate(1747.28125 0)"/>
    <use xlink:href="#DejaVuSans-47" transform="translate(1808.8125 0)"/>
    <use xlink:href="#DejaVuSans-48" transform="translate(1872.296875 0)"/>
    <use xlink:href="#DejaVuSans-47" transform="translate(1933.828125 0)"/>
    <use xlink:href="#DejaVuSans-f" transform="translate(1997.3125 0)"/>
    <use xlink:href="#DejaVuSans-3" transform="translate(2029.09375 0)"/>
    <use xlink:href="#DejaVuSans-56" transform="translate(2060.875 0)"/>
    <use xlink:href="#DejaVuSans-52" transform="translate(2112.96875 0)"/>
    <use xlink:href="#DejaVuSans-3" transform="translate(2174.15625 0)"/>
    <use xlink:href="#DejaVuSans-57" transform="translate(2205.9375 0)"/>
    <use xlink:href="#DejaVuSans-4b" transform="translate(2245.140625 0)"/>
    <use xlink:href="#DejaVuSans-48" transform="translate(2308.515625 0)"/>
    <use xlink:href="#DejaVuSans-3" transform="translate(2370.046875 0)"/>
    <use xlink:href="#DejaVuSans-57" transform="translate(2401.828125 0)"/>
    <use xlink:href="#DejaVuSans-55" transform="translate(2441.03125 0)"/>
    <use xlink:href="#DejaVuSans-58" transform="translate(2482.140625 0)"/>
    <use xlink:href="#DejaVuSans-48" transform="translate(2545.515625 0)"/>
    <use xlink:href="#DejaVuSans-3" transform="translate(2607.046875 0)"/>
    <use xlink:href="#DejaVuSans-50" transform="translate(2638.828125 0)"/>
    <use xlink:href="#DejaVuSans-44" transform="translate(2736.234375 0)"/>
    <use xlink:href="#DejaVuSans-5b" transform="translate(2797.515625 0)"/>
    <use xlink:href="#DejaVuSans-4c" transform="translate(2856.703125 0)"/>
    <use xlink:href="#DejaVuSans-50" transform="translate(2884.484375 0)"/>
    <use xlink:href="#DejaVuSans-58" transform="translate(2981.890625 0)"/>
    <use xlink:href="#DejaVuSans-50" transform="translate(3045.265625 0)"/>
    <use xlink:href="#DejaVuSans-3" transform="translate(3142.671875 0)"/>
    <use xlink:href="#DejaVuSans-4c" transform="translate(3174.453125 0)"/>
    <use xlink:href="#DejaVuSans-56" transform="translate(3202.234375 0)"/>
    <use xlink:href="#DejaVuSans-3" transform="translate(3254.328125 0)"/>
    <use xlink:href="#DejaVuSans-44" transform="translate(3286.109375 0)"/>
    <use xlink:href="#DejaVuSans-57" transform="translate(3347.390625 0)"/>
    <use xlink:href="#DejaVuSans-3" transform="translate(3386.59375 0)"/>
    <use xlink:href="#DejaVuSans-4f" transform="translate(3418.375 0)"/>
    <use xlink:href="#DejaVuSans-48" transform="translate(3446.15625 0)"/>
    <use xlink:href="#DejaVuSans-44" transform="translate(3507.6875 0)"/>
    <use xlink:href="#DejaVuSans-56" transform="translate(3568.96875 0)"/>
    <use xlink:href="#DejaVuSans-57" transform="translate(3621.0625 0)"/>
    <use xlink:href="#DejaVuSans-3" transform="translate(3660.265625 0)"/>
    <use xlink:href="#DejaVuSans-57" transform="translate(3692.046875 0)"/>
    <use xlink:href="#DejaVuSans-4b" transform="translate(3731.25 0)"/>
    <use xlink:href="#DejaVuSans-4c" transform="translate(3794.625 0)"/>
    <use xlink:href="#DejaVuSans-56" transform="translate(3822.40625 0)"/>
    <use xlink:href="#DejaVuSans-3" transform="translate(3874.5 0)"/>
    <use xlink:href="#DejaVuSans-4f" transform="translate(3906.28125 0)"/>
    <use xlink:href="#DejaVuSans-44" transform="translate(3934.0625 0)"/>
    <use xlink:href="#DejaVuSans-55" transform="translate(3995.34375 0)"/>
    <use xlink:href="#DejaVuSans-4a" transform="translate(4034.703125 0)"/>
    <use xlink:href="#DejaVuSans-48" transform="translate(4098.1875 0)"/>
    <use xlink:href="#DejaVuSans-11" transform="translate(4159.71875 0)"/>
    <use xlink:href="#DejaVuSans-3" transform="translate(4191.5 0)"/>
    <use xlink:href="#DejaVuSans-a" transform="translate(4223.28125 0)"/>
    <use xlink:href="#DejaVuSans-56" transform="translate(4250.765625 0)"/>
    <use xlink:href="#DejaVuSans-57" transform="translate(4302.859375 0)"/>
    <use xlink:href="#DejaVuSans-52" transform="translate(4342.0625 0)"/>
    <use xlink:href="#DejaVuSans-53" transform="translate(4403.25 0)"/>
    <use xlink:href="#DejaVuSans-53" transform="translate(4466.734375 0)"/>
    <use xlink:href="#DejaVuSans-48" transform="translate(4530.21875 0)"/>
    <use xlink:href="#DejaVuSans-47" transform="translate(4591.75 0)"/>
    <use xlink:href="#DejaVuSans-3" transform="translate(4655.234375 0)"/>
    <use xlink:href="#DejaVuSans-45" transform="translate(4687.015625 0)"/>
    <use xlink:href="#DejaVuSans-5c" transform="translate(4750.5 0)"/>
    <use xlink:href="#DejaVuSans-3" transform="translate(4809.6875 0)"/>
    <use xlink:href="#DejaVuSans-56" transform="translate(4841.46875 0)"/>
    <use xlink:href="#DejaVuSans-44" transform="translate(4893.5625 0)"/>
    <use xlink:href="#DejaVuSans-49" transform="translate(4954.84375 0)"/>
    <use xlink:href="#DejaVuSans-48" transform="translate(4990.046875 0)"/>
    <use xlink:href="#DejaVuSans-57" transform="translate(5051.578125 0)"/>
    <use xlink:href="#DejaVuSans-5c" transform="translate(5090.78125 0)"/>
    <use xlink:href="#DejaVuSans-3" transform="translate(5149.96875 0)"/>
    <use xlink:href="#DejaVuSans-46" transform="translate(5181.75 0)"/>
    <use xlink:href="#DejaVuSans-44" transform="translate(5236.734375 0)"/>
    <use xlink:href="#DejaVuSans-53" transform="translate(5298.015625 0)"/>
    <use xlink:href="#DejaVuSans-a" transform="translate(5361.5 0)"/>
    <use xlink:href="#DejaVuSans-3" transform="translate(5388.984375 0)"/>
    <use xlink:href="#DejaVuSans-20" transform="translate(5420.765625 0)"/>
    <use xlink:href="#DejaVuSans-3" transform="translate(5504.5625 0)"/>
    <use xlink:href="#DejaVuSans-57" transform="translate(5536.34375 0)"/>
    <use xlink:href="#DejaVuSans-4b" transform="translate(5575.546875 0)"/>
    <use xlink:href="#DejaVuSans-48" transform="translate(5638.921875 0)"/>
   </g>
   <!-- suite's memory/time limit ended the ladder, not a native OOM. A larger fitting configuration says nothing about speed. -->
   <g style="opacity: 0.75" transform="translate(10.08 312.493344) scale(0.08 -0.08)">
    <defs>
     <path id="DejaVuSans-12" d="M 1625 4666 
L 2156 4666 
L 531 -594 
L 0 -594 
L 1625 4666 
z
" transform="scale(0.015625)"/>
     <path id="DejaVuSans-32" d="M 2522 4238 
Q 1834 4238 1429 3725 
Q 1025 3213 1025 2328 
Q 1025 1447 1429 934 
Q 1834 422 2522 422 
Q 3209 422 3611 934 
Q 4013 1447 4013 2328 
Q 4013 3213 3611 3725 
Q 3209 4238 2522 4238 
z
M 2522 4750 
Q 3503 4750 4090 4092 
Q 4678 3434 4678 2328 
Q 4678 1225 4090 567 
Q 3503 -91 2522 -91 
Q 1538 -91 948 565 
Q 359 1222 359 2328 
Q 359 3434 948 4092 
Q 1538 4750 2522 4750 
z
" transform="scale(0.015625)"/>
    </defs>
    <use xlink:href="#DejaVuSans-56"/>
    <use xlink:href="#DejaVuSans-58" transform="translate(52.09375 0)"/>
    <use xlink:href="#DejaVuSans-4c" transform="translate(115.46875 0)"/>
    <use xlink:href="#DejaVuSans-57" transform="translate(143.25 0)"/>
    <use xlink:href="#DejaVuSans-48" transform="translate(182.453125 0)"/>
    <use xlink:href="#DejaVuSans-a" transform="translate(243.984375 0)"/>
    <use xlink:href="#DejaVuSans-56" transform="translate(271.46875 0)"/>
    <use xlink:href="#DejaVuSans-3" transform="translate(323.5625 0)"/>
    <use xlink:href="#DejaVuSans-50" transform="translate(355.34375 0)"/>
    <use xlink:href="#DejaVuSans-48" transform="translate(452.75 0)"/>
    <use xlink:href="#DejaVuSans-50" transform="translate(514.28125 0)"/>
    <use xlink:href="#DejaVuSans-52" transform="translate(611.6875 0)"/>
    <use xlink:href="#DejaVuSans-55" transform="translate(672.875 0)"/>
    <use xlink:href="#DejaVuSans-5c" transform="translate(713.984375 0)"/>
    <use xlink:href="#DejaVuSans-12" transform="translate(773.171875 0)"/>
    <use xlink:href="#DejaVuSans-57" transform="translate(806.859375 0)"/>
    <use xlink:href="#DejaVuSans-4c" transform="translate(846.0625 0)"/>
    <use xlink:href="#DejaVuSans-50" transform="translate(873.84375 0)"/>
    <use xlink:href="#DejaVuSans-48" transform="translate(971.25 0)"/>
    <use xlink:href="#DejaVuSans-3" transform="translate(1032.78125 0)"/>
    <use xlink:href="#DejaVuSans-4f" transform="translate(1064.5625 0)"/>
    <use xlink:href="#DejaVuSans-4c" transform="translate(1092.34375 0)"/>
    <use xlink:href="#DejaVuSans-50" transform="translate(1120.125 0)"/>
    <use xlink:href="#DejaVuSans-4c" transform="translate(1217.53125 0)"/>
    <use xlink:href="#DejaVuSans-57" transform="translate(1245.3125 0)"/>
    <use xlink:href="#DejaVuSans-3" transform="translate(1284.515625 0)"/>
    <use xlink:href="#DejaVuSans-48" transform="translate(1316.296875 0)"/>
    <use xlink:href="#DejaVuSans-51" transform="translate(1377.828125 0)"/>
    <use xlink:href="#DejaVuSans-47" transform="translate(1441.203125 0)"/>
    <use xlink:href="#DejaVuSans-48" transform="translate(1504.6875 0)"/>
    <use xlink:href="#DejaVuSans-47" transform="translate(1566.21875 0)"/>
    <use xlink:href="#DejaVuSans-3" transform="translate(1629.703125 0)"/>
    <use xlink:href="#DejaVuSans-57" transform="translate(1661.484375 0)"/>
    <use xlink:href="#DejaVuSans-4b" transform="translate(1700.6875 0)"/>
    <use xlink:href="#DejaVuSans-48" transform="translate(1764.0625 0)"/>
    <use xlink:href="#DejaVuSans-3" transform="translate(1825.59375 0)"/>
    <use xlink:href="#DejaVuSans-4f" transform="translate(1857.375 0)"/>
    <use xlink:href="#DejaVuSans-44" transform="translate(1885.15625 0)"/>
    <use xlink:href="#DejaVuSans-47" transform="translate(1946.4375 0)"/>
    <use xlink:href="#DejaVuSans-47" transform="translate(2009.921875 0)"/>
    <use xlink:href="#DejaVuSans-48" transform="translate(2073.40625 0)"/>
    <use xlink:href="#DejaVuSans-55" transform="translate(2134.9375 0)"/>
    <use xlink:href="#DejaVuSans-f" transform="translate(2176.046875 0)"/>
    <use xlink:href="#DejaVuSans-3" transform="translate(2207.828125 0)"/>
    <use xlink:href="#DejaVuSans-51" transform="translate(2239.609375 0)"/>
    <use xlink:href="#DejaVuSans-52" transform="translate(2302.984375 0)"/>
    <use xlink:href="#DejaVuSans-57" transform="translate(2364.171875 0)"/>
    <use xlink:href="#DejaVuSans-3" transform="translate(2403.375 0)"/>
    <use xlink:href="#DejaVuSans-44" transform="translate(2435.15625 0)"/>
    <use xlink:href="#DejaVuSans-3" transform="translate(2496.4375 0)"/>
    <use xlink:href="#DejaVuSans-51" transform="translate(2528.21875 0)"/>
    <use xlink:href="#DejaVuSans-44" transform="translate(2591.59375 0)"/>
    <use xlink:href="#DejaVuSans-57" transform="translate(2652.875 0)"/>
    <use xlink:href="#DejaVuSans-4c" transform="translate(2692.078125 0)"/>
    <use xlink:href="#DejaVuSans-59" transform="translate(2719.859375 0)"/>
    <use xlink:href="#DejaVuSans-48" transform="translate(2779.046875 0)"/>
    <use xlink:href="#DejaVuSans-3" transform="translate(2840.578125 0)"/>
    <use xlink:href="#DejaVuSans-32" transform="translate(2872.359375 0)"/>
    <use xlink:href="#DejaVuSans-32" transform="translate(2951.078125 0)"/>
    <use xlink:href="#DejaVuSans-30" transform="translate(3029.796875 0)"/>
    <use xlink:href="#DejaVuSans-11" transform="translate(3116.078125 0)"/>
    <use xlink:href="#DejaVuSans-3" transform="translate(3147.859375 0)"/>
    <use xlink:href="#DejaVuSans-24" transform="translate(3179.640625 0)"/>
    <use xlink:href="#DejaVuSans-3" transform="translate(3248.046875 0)"/>
    <use xlink:href="#DejaVuSans-4f" transform="translate(3279.828125 0)"/>
    <use xlink:href="#DejaVuSans-44" transform="translate(3307.609375 0)"/>
    <use xlink:href="#DejaVuSans-55" transform="translate(3368.890625 0)"/>
    <use xlink:href="#DejaVuSans-4a" transform="translate(3408.25 0)"/>
    <use xlink:href="#DejaVuSans-48" transform="translate(3471.734375 0)"/>
    <use xlink:href="#DejaVuSans-55" transform="translate(3533.265625 0)"/>
    <use xlink:href="#DejaVuSans-3" transform="translate(3574.375 0)"/>
    <use xlink:href="#DejaVuSans-13af" transform="translate(3606.15625 0)"/>
    <use xlink:href="#DejaVuSans-57" transform="translate(3669.140625 0)"/>
    <use xlink:href="#DejaVuSans-57" transform="translate(3708.34375 0)"/>
    <use xlink:href="#DejaVuSans-4c" transform="translate(3747.546875 0)"/>
    <use xlink:href="#DejaVuSans-51" transform="translate(3775.328125 0)"/>
    <use xlink:href="#DejaVuSans-4a" transform="translate(3838.703125 0)"/>
    <use xlink:href="#DejaVuSans-3" transform="translate(3902.1875 0)"/>
    <use xlink:href="#DejaVuSans-46" transform="translate(3933.96875 0)"/>
    <use xlink:href="#DejaVuSans-52" transform="translate(3988.953125 0)"/>
    <use xlink:href="#DejaVuSans-51" transform="translate(4050.140625 0)"/>
    <use xlink:href="#DejaVuSans-13af" transform="translate(4113.515625 0)"/>
    <use xlink:href="#DejaVuSans-4a" transform="translate(4176.5 0)"/>
    <use xlink:href="#DejaVuSans-58" transform="translate(4239.984375 0)"/>
    <use xlink:href="#DejaVuSans-55" transform="translate(4303.359375 0)"/>
    <use xlink:href="#DejaVuSans-44" transform="translate(4344.46875 0)"/>
    <use xlink:href="#DejaVuSans-57" transform="translate(4405.75 0)"/>
    <use xlink:href="#DejaVuSans-4c" transform="translate(4444.953125 0)"/>
    <use xlink:href="#DejaVuSans-52" transform="translate(4472.734375 0)"/>
    <use xlink:href="#DejaVuSans-51" transform="translate(4533.921875 0)"/>
    <use xlink:href="#DejaVuSans-3" transform="translate(4597.296875 0)"/>
    <use xlink:href="#DejaVuSans-56" transform="translate(4629.078125 0)"/>
    <use xlink:href="#DejaVuSans-44" transform="translate(4681.171875 0)"/>
    <use xlink:href="#DejaVuSans-5c" transform="translate(4742.453125 0)"/>
    <use xlink:href="#DejaVuSans-56" transform="translate(4801.640625 0)"/>
    <use xlink:href="#DejaVuSans-3" transform="translate(4853.734375 0)"/>
    <use xlink:href="#DejaVuSans-51" transform="translate(4885.515625 0)"/>
    <use xlink:href="#DejaVuSans-52" transform="translate(4948.890625 0)"/>
    <use xlink:href="#DejaVuSans-57" transform="translate(5010.078125 0)"/>
    <use xlink:href="#DejaVuSans-4b" transform="translate(5049.28125 0)"/>
    <use xlink:href="#DejaVuSans-4c" transform="translate(5112.65625 0)"/>
    <use xlink:href="#DejaVuSans-51" transform="translate(5140.4375 0)"/>
    <use xlink:href="#DejaVuSans-4a" transform="translate(5203.8125 0)"/>
    <use xlink:href="#DejaVuSans-3" transform="translate(5267.296875 0)"/>
    <use xlink:href="#DejaVuSans-44" transform="translate(5299.078125 0)"/>
    <use xlink:href="#DejaVuSans-45" transform="translate(5360.359375 0)"/>
    <use xlink:href="#DejaVuSans-52" transform="translate(5423.84375 0)"/>
    <use xlink:href="#DejaVuSans-58" transform="translate(5485.03125 0)"/>
    <use xlink:href="#DejaVuSans-57" transform="translate(5548.40625 0)"/>
    <use xlink:href="#DejaVuSans-3" transform="translate(5587.609375 0)"/>
    <use xlink:href="#DejaVuSans-56" transform="translate(5619.390625 0)"/>
    <use xlink:href="#DejaVuSans-53" transform="translate(5671.484375 0)"/>
    <use xlink:href="#DejaVuSans-48" transform="translate(5734.96875 0)"/>
    <use xlink:href="#DejaVuSans-48" transform="translate(5796.5 0)"/>
    <use xlink:href="#DejaVuSans-47" transform="translate(5858.03125 0)"/>
    <use xlink:href="#DejaVuSans-11" transform="translate(5921.515625 0)"/>
   </g>
  </g>
 </g>
 <defs>
  <clipPath id="p197f0d0d80">
   <rect x="151.39375" y="53.811047" width="181.00625" height="181.266609"/>
  </clipPath>
  <clipPath id="p2c2e6c6e6c">
   <rect x="483.79375" y="53.811047" width="181.00625" height="181.266609"/>
  </clipPath>
  <clipPath id="p2dee6fffe7">
   <rect x="816.19375" y="53.811047" width="181.00625" height="181.266609"/>
  </clipPath>
 </defs>
</svg>
